<?xml version="1.0" ?>
<svg xmlns="http://www.w3.org/2000/svg" version="1.1" width="992" height="232">
	<g fill="none" stroke-linecap="butt">
		<path stroke="#FF000001" d="M 168.00 94.00 L 168.00 94.00 C 168.00 94.00 168.00 93.78 168.00 93.50 C 168.00 93.22 168.00 72.08 168.00 0.00" vector-effect="non-scaling-stroke"/>
		<path stroke="#000000" d="M 270.50 50.00 C 272.98 49.45 279.50 49.23 285.00 49.50 C 291.38 49.82 296.99 50.72 300.50 52.00 C 303.52 53.10 308.02 55.12 310.50 56.50 C 312.98 57.88 316.80 61.02 319.00 63.50 C 321.20 65.97 323.90 70.03 325.00 72.50 C 326.10 74.97 327.23 79.92 327.50 83.50 C 327.79 87.21 327.57 90.43 327.00 91.00 C 326.44 91.56 320.67 92.00 314.00 92.00 C 307.33 92.00 301.56 91.56 301.00 91.00 C 300.45 90.45 300.00 88.65 300.00 87.00 C 300.00 85.35 299.10 82.65 298.00 81.00 C 296.90 79.35 294.20 77.10 292.00 76.00 C 289.80 74.90 286.20 73.78 284.00 73.50 C 281.80 73.22 278.20 73.45 276.00 74.00 C 273.80 74.55 270.88 76.12 269.50 77.50 C 267.79 79.21 267.00 81.10 267.00 83.50 C 267.00 85.50 267.86 88.07 269.00 89.50 C 270.10 90.88 272.35 92.67 274.00 93.50 C 275.65 94.33 282.85 97.03 290.00 99.50 C 297.15 101.97 305.93 105.35 309.50 107.00 C 313.08 108.65 318.02 112.02 320.50 114.50 C 322.98 116.97 325.68 120.58 326.50 122.50 C 327.48 124.79 328.00 129.28 328.00 135.50 C 328.00 143.50 327.61 145.87 325.50 150.50 C 324.03 153.73 321.14 157.65 318.50 160.00 C 316.02 162.20 311.98 164.90 309.50 166.00 C 307.02 167.10 302.52 168.68 299.50 169.50 C 296.41 170.34 289.83 171.00 284.50 171.00 C 279.27 171.00 272.75 170.55 270.00 170.00 C 267.25 169.45 262.07 167.65 258.50 166.00 C 254.36 164.09 250.55 161.37 248.00 158.50 C 245.80 156.03 243.10 152.20 242.00 150.00 C 240.90 147.80 239.55 143.07 239.00 139.50 C 238.33 135.17 238.33 132.33 239.00 131.00 C 239.94 129.12 240.74 129.03 265.00 130.00 L 266.50 134.50 C 267.32 136.97 269.35 140.35 271.00 142.00 C 272.65 143.65 275.80 145.45 278.00 146.00 C 280.20 146.55 284.02 147.00 286.50 147.00 C 288.98 147.00 292.57 146.32 294.50 145.50 C 296.48 144.65 298.65 142.70 299.50 141.00 C 300.32 139.35 301.00 137.10 301.00 136.00 C 301.00 134.90 299.65 132.65 298.00 131.00 C 295.86 128.86 290.70 126.42 280.00 122.50 C 271.75 119.47 262.30 115.65 259.00 114.00 C 255.70 112.35 250.97 108.97 248.50 106.50 C 246.03 104.03 243.10 99.97 242.00 97.50 C 240.48 94.08 240.00 90.83 240.00 84.00 C 240.00 76.53 240.43 74.06 242.50 69.50 C 243.88 66.46 246.79 62.44 249.00 60.50 C 251.20 58.58 255.93 55.65 259.50 54.00 C 263.07 52.35 268.02 50.55 270.50 50.00" vector-effect="non-scaling-stroke"/>
		<path stroke="#000000" d="M 564.00 51.00 C 564.55 50.45 570.17 50.00 576.50 50.00 C 585.39 50.00 588.34 50.34 589.50 51.50 C 590.73 52.73 591.09 57.76 592.00 106.00 L 611.00 82.00 L 626.00 82.00 C 635.00 82.00 641.20 82.40 641.50 83.00 C 641.77 83.55 639.08 87.83 635.50 92.50 C 631.92 97.17 626.98 103.47 624.50 106.50 C 622.02 109.53 620.00 112.67 620.00 113.50 C 620.00 114.33 625.62 126.70 632.50 141.00 C 639.38 155.30 644.77 167.68 644.50 168.50 C 644.09 169.73 641.61 170.00 630.50 170.00 C 619.61 170.00 616.81 169.71 616.00 168.50 C 615.45 167.68 611.85 159.12 608.00 149.50 C 604.15 139.88 600.55 132.00 600.00 132.00 C 599.45 132.00 597.20 134.47 591.00 143.00 L 591.00 155.50 C 591.00 162.50 590.56 168.44 590.00 169.00 C 589.44 169.56 583.50 170.00 576.50 170.00 C 565.00 170.00 563.92 169.84 563.00 168.00 C 562.35 166.70 562.18 146.02 562.50 109.00 C 562.82 73.02 563.37 51.63 564.00 51.00" vector-effect="non-scaling-stroke"/>
		<path stroke="#000000" d="M 650.00 50.50 C 650.55 50.23 655.95 50.00 662.00 50.00 C 668.05 50.00 673.90 50.45 675.00 51.00 C 676.96 51.98 677.00 53.00 677.00 146.00 L 733.00 147.00 L 733.00 169.00 L 650.00 169.00 L 649.50 110.00 C 649.17 71.16 649.34 50.83 650.00 50.50" vector-effect="non-scaling-stroke"/>
		<path stroke="#000000" d="M 344.00 58.00 L 356.00 58.00 C 362.67 58.00 368.44 58.44 369.00 59.00 C 369.55 59.55 370.00 64.95 370.00 82.00 L 387.00 83.00 L 387.00 103.00 L 371.00 105.00 L 370.50 123.00 C 370.03 140.03 370.11 141.11 372.00 143.00 C 373.47 144.47 375.33 145.00 379.00 145.00 C 382.33 145.00 384.33 145.50 385.00 146.50 C 385.59 147.38 385.79 152.11 385.00 168.00 L 379.00 169.00 C 375.00 169.67 370.33 169.67 365.00 169.00 C 359.84 168.35 355.40 167.11 352.50 165.50 C 350.02 164.12 347.10 161.65 346.00 160.00 C 344.20 157.31 343.90 154.35 342.00 105.00 L 331.00 103.00 L 331.00 83.00 L 336.50 82.50 C 340.17 82.17 342.17 81.50 342.50 80.50 C 342.77 79.67 343.23 74.28 344.00 58.00" vector-effect="non-scaling-stroke"/>
		<path stroke="#2BFD32EB" d="M 20.00 145.00 L 20.00 145.00 C 20.00 145.00 20.45 144.78 21.00 144.50 C 21.55 144.22 28.30 135.90 36.00 126.00 C 43.70 116.10 50.00 107.33 50.00 105.00" vector-effect="non-scaling-stroke"/>
		<path stroke="#2BFD32EB" d="M 59.00 94.00 L 59.00 94.00 C 59.00 94.00 59.45 94.00 60.00 94.00 C 60.55 94.00 62.58 91.53 64.50 88.50 C 66.42 85.47 68.45 83.22 69.00 83.50 C 69.55 83.78 74.28 88.05 89.00 102.00" vector-effect="non-scaling-stroke"/>
		<path stroke="#2BFD32EB" d="M 98.00 108.00 L 98.00 108.00 C 98.00 108.00 98.22 109.12 98.50 110.50 C 98.81 112.03 104.24 118.05 112.50 126.00 C 119.92 133.15 126.45 138.78 127.00 138.50 C 127.55 138.22 128.45 136.88 130.00 133.00" vector-effect="non-scaling-stroke"/>
		<path stroke="#2BFD32EB" d="M 137.00 127.00 L 137.00 127.00 C 137.00 127.00 137.90 126.78 139.00 126.50 C 140.10 126.22 147.07 119.92 168.00 99.00" vector-effect="non-scaling-stroke"/>
		<path stroke="#2BFD32EB" d="M 170.00 96.00 L 170.00 96.00 C 170.00 96.00 170.00 95.78 170.00 95.00" vector-effect="non-scaling-stroke"/>
		<path stroke="#000000" d="M 424.50 80.50 C 425.88 80.22 431.05 80.45 436.00 81.00 C 440.95 81.55 447.02 82.90 449.50 84.00 C 451.98 85.10 456.02 87.58 458.50 89.50 C 460.98 91.42 464.35 95.03 466.00 97.50 C 467.65 99.97 469.90 105.15 471.00 109.00 C 472.33 113.67 473.00 119.00 473.00 125.00 C 473.00 129.95 472.55 136.25 472.00 139.00 C 471.45 141.75 469.65 146.70 468.00 150.00 C 466.24 153.52 462.93 157.86 460.00 160.50 C 457.25 162.97 452.52 166.12 449.50 167.50 C 445.22 169.45 441.79 170.11 434.00 170.50 C 425.91 170.90 422.66 170.62 417.00 169.00 C 411.96 167.56 408.74 165.88 405.50 163.00 C 403.02 160.80 399.20 156.75 397.00 154.00 C 394.61 151.01 392.40 146.79 391.50 143.50 C 390.51 139.88 390.00 133.39 390.00 124.50 C 390.00 113.33 390.35 110.14 392.00 106.00 C 393.10 103.25 395.35 98.97 397.00 96.50 C 398.65 94.03 402.02 90.42 404.50 88.50 C 406.98 86.58 411.93 84.10 415.50 83.00 C 419.07 81.90 423.12 80.78 424.50 80.50" vector-effect="non-scaling-stroke"/>
		<path stroke="#000000" d="M 511.50 80.50 C 512.88 80.22 518.05 80.45 523.00 81.00 C 529.29 81.70 533.96 82.90 538.50 85.00 C 542.08 86.65 547.02 90.02 549.50 92.50 C 551.98 94.97 555.12 99.25 556.50 102.00 C 557.88 104.75 559.00 108.35 559.00 110.00 C 559.00 111.78 558.39 113.20 557.50 113.50 C 556.67 113.78 550.83 114.90 544.50 116.00 C 534.34 117.77 532.88 117.82 532.00 116.50 C 531.45 115.67 530.55 113.65 530.00 112.00 C 529.45 110.35 527.65 108.10 526.00 107.00 C 524.00 105.67 521.33 105.00 518.00 105.00 C 514.50 105.00 512.25 105.60 510.50 107.00 C 509.12 108.10 507.32 110.58 506.50 112.50 C 505.68 114.42 504.77 118.47 504.50 121.50 C 504.23 124.53 504.45 129.70 505.00 133.00 C 505.55 136.30 506.90 140.35 508.00 142.00 C 509.10 143.65 511.35 145.45 513.00 146.00 C 514.65 146.55 517.80 146.78 520.00 146.50 C 522.20 146.22 525.12 145.10 526.50 144.00 C 527.88 142.90 529.67 140.43 530.50 138.50 C 531.33 136.57 532.45 135.00 533.00 135.00 C 533.55 135.00 538.50 135.68 544.00 136.50 C 549.50 137.32 555.12 138.45 556.50 139.00 C 558.58 139.83 558.92 140.50 558.50 143.00 C 558.23 144.65 556.88 148.25 555.50 151.00 C 554.12 153.75 552.10 156.90 551.00 158.00 C 549.90 159.10 546.98 161.57 544.50 163.50 C 542.02 165.43 537.08 167.90 533.50 169.00 C 529.17 170.33 524.17 171.00 518.50 171.00 C 512.83 171.00 507.83 170.33 503.50 169.00 C 499.17 167.67 495.50 165.67 492.50 163.00 C 490.02 160.80 486.43 157.20 484.50 155.00 C 482.57 152.80 480.10 148.53 479.00 145.50 C 477.34 140.95 477.00 137.50 477.00 125.50 C 477.00 113.50 477.34 110.05 479.00 105.50 C 480.10 102.47 482.35 98.20 484.00 96.00 C 485.65 93.80 489.02 90.42 491.50 88.50 C 493.98 86.58 498.93 84.10 502.50 83.00 C 506.07 81.90 510.12 80.78 511.50 80.50" vector-effect="non-scaling-stroke"/>
		<path stroke="#000000" d="M 768.50 81.00 C 770.42 80.45 775.60 80.22 780.00 80.50 C 785.57 80.85 789.67 81.76 793.50 83.50 C 796.52 84.88 800.58 87.12 802.50 88.50 C 804.42 89.88 807.80 93.70 810.00 97.00 C 812.20 100.30 814.90 105.92 816.00 109.50 C 817.10 113.08 818.45 119.38 819.00 123.50 C 819.67 128.50 819.67 131.50 819.00 132.50 C 818.15 133.77 813.89 134.00 764.00 134.00 L 764.50 136.50 C 764.77 137.88 766.12 140.35 767.50 142.00 C 768.88 143.65 771.58 145.45 773.50 146.00 C 775.42 146.55 780.15 146.78 784.00 146.50 C 789.42 146.11 792.13 145.32 801.00 140.00 L 805.00 144.00 C 807.20 146.20 810.35 149.80 815.00 156.00 L 812.00 159.50 C 810.35 161.43 806.75 164.12 804.00 165.50 C 801.25 166.88 796.75 168.68 794.00 169.50 C 791.16 170.35 785.11 171.00 780.00 171.00 C 773.67 171.00 769.22 170.41 765.00 169.00 C 761.70 167.90 756.75 165.65 754.00 164.00 C 751.25 162.35 747.42 158.97 745.50 156.50 C 743.58 154.03 740.88 149.53 739.50 146.50 C 738.12 143.47 736.55 137.85 736.00 134.00 C 735.45 130.15 735.23 123.85 735.50 120.00 C 735.77 116.15 736.90 110.53 738.00 107.50 C 739.10 104.47 741.35 99.97 743.00 97.50 C 744.65 95.03 748.25 91.20 751.00 89.00 C 753.75 86.80 758.02 84.33 760.50 83.50 C 762.98 82.67 766.58 81.55 768.50 81.00" vector-effect="non-scaling-stroke"/>
		<path stroke="#000000" d="M 868.50 80.50 C 869.33 80.22 872.48 80.22 875.50 80.50 C 878.52 80.78 883.25 81.90 886.00 83.00 C 889.23 84.29 892.59 86.77 895.50 90.00 C 898.63 93.48 900.46 96.67 901.50 100.50 C 902.74 105.05 902.91 111.46 902.00 169.00 L 876.00 169.00 L 875.00 140.50 C 874.45 124.82 873.55 111.10 873.00 110.00 C 872.45 108.90 871.10 107.33 870.00 106.50 C 868.90 105.67 865.98 105.00 863.50 105.00 C 859.69 105.00 858.46 105.54 852.00 112.00 L 852.00 139.00 C 852.00 155.00 851.59 166.81 851.00 168.00 C 850.08 169.84 849.00 170.00 837.50 170.00 C 827.50 170.00 824.80 169.70 824.00 168.50 C 823.35 167.53 823.18 152.18 824.00 83.00 L 836.50 82.50 C 846.76 82.09 849.27 82.27 850.50 83.50 C 851.33 84.33 852.00 86.12 852.00 90.00 L 856.00 86.50 C 858.20 84.58 861.58 82.55 863.50 82.00 C 865.42 81.45 867.67 80.78 868.50 80.50" vector-effect="non-scaling-stroke"/>
		<path stroke="#000000" d="M 936.00 81.00 C 939.33 80.33 944.17 80.33 950.50 81.00 C 956.75 81.66 961.88 82.86 965.50 84.50 C 968.52 85.88 972.80 88.58 975.00 90.50 C 977.20 92.42 979.67 95.35 980.50 97.00 C 981.33 98.65 982.45 102.25 983.00 105.00 C 983.82 109.12 983.74 110.18 982.50 111.00 C 981.60 111.60 976.38 111.80 969.50 111.50 C 959.28 111.06 957.89 110.78 957.00 109.00 C 956.45 107.90 954.88 106.10 953.50 105.00 C 951.68 103.55 949.50 103.00 945.50 103.00 C 942.39 103.00 938.91 103.65 937.50 104.50 C 935.90 105.46 935.00 106.90 935.00 108.50 C 935.00 110.28 935.87 111.43 938.00 112.50 C 939.65 113.33 945.50 114.90 951.00 116.00 C 956.50 117.10 963.48 118.90 966.50 120.00 C 969.52 121.10 974.02 123.58 976.50 125.50 C 979.22 127.61 981.79 130.78 983.00 133.50 C 984.13 136.05 985.00 140.17 985.00 143.00 C 985.00 145.75 984.55 149.80 984.00 152.00 C 983.33 154.67 981.33 157.67 978.00 161.00 C 974.33 164.67 971.40 166.53 967.00 168.00 C 962.07 169.64 958.33 170.00 946.00 170.00 C 933.50 170.00 930.08 169.67 925.50 168.00 C 922.48 166.90 918.20 164.43 916.00 162.50 C 913.80 160.57 910.88 157.20 909.50 155.00 C 907.49 151.78 907.10 150.12 908.00 142.00 L 934.00 141.00 L 934.50 144.00 C 934.84 146.06 935.94 147.47 938.00 148.50 C 939.65 149.32 943.25 150.00 946.00 150.00 C 948.75 150.00 951.90 149.55 953.00 149.00 C 954.10 148.45 955.45 147.55 956.00 147.00 C 956.55 146.45 957.00 145.32 957.00 144.50 C 957.00 143.68 956.33 142.32 955.50 141.50 C 954.67 140.68 948.83 138.88 942.50 137.50 C 935.42 135.96 928.31 133.65 924.00 131.50 C 920.00 129.50 915.50 126.29 913.50 124.00 C 911.58 121.80 909.55 118.88 909.00 117.50 C 908.45 116.12 908.00 112.08 908.00 108.50 C 908.00 103.57 908.60 100.79 910.50 97.00 C 911.95 94.09 914.88 90.54 917.50 88.50 C 919.98 86.58 924.02 84.33 926.50 83.50 C 928.98 82.67 933.25 81.55 936.00 81.00" vector-effect="non-scaling-stroke"/>
		<path stroke="#06320604" d="M 168.00 94.00 L 168.00 94.00 C 168.00 94.00 168.22 94.00 168.50 94.00 C 168.78 94.00 169.22 94.45 170.00 96.00" vector-effect="non-scaling-stroke"/>
		<path stroke="#06320604" d="M 170.00 96.00 L 170.00 96.00 C 170.00 96.00 170.00 96.45 170.00 97.00 C 170.00 97.55 169.55 98.22 168.00 99.00" vector-effect="non-scaling-stroke"/>
		<path stroke="#06320604" d="M 168.00 99.00 L 168.00 99.00 C 168.00 99.00 168.00 98.78 168.00 98.50 C 168.00 98.22 168.00 97.10 168.00 94.00" vector-effect="non-scaling-stroke"/>
		<path stroke="#FF7F0002" d="M 90.00 102.00 L 90.00 102.00 C 90.00 102.00 89.78 102.00 89.00 102.00" vector-effect="non-scaling-stroke"/>
		<path stroke="#FF7F0002" d="M 89.00 102.00 L 89.00 102.00 C 89.00 102.00 89.00 101.78 89.00 101.50 C 89.00 101.22 89.45 100.78 91.00 100.00" vector-effect="non-scaling-stroke"/>
		<path stroke="#23FE00FC" d="M 423.00 108.00 C 425.53 105.47 426.78 105.00 431.00 105.00 C 435.38 105.00 436.43 105.43 439.50 108.50 C 441.50 110.50 443.43 113.71 444.00 116.00 C 444.55 118.20 444.77 123.60 444.50 128.00 C 444.23 132.40 443.32 137.57 442.50 139.50 C 441.68 141.43 439.65 143.90 438.00 145.00 C 436.25 146.17 433.33 147.00 431.00 147.00 C 427.67 147.00 426.33 146.33 423.00 143.00 C 420.00 140.00 418.75 137.75 418.00 134.00 C 417.45 131.25 417.00 127.20 417.00 125.00 C 417.00 122.80 417.68 118.75 418.50 116.00 C 419.32 113.25 421.35 109.65 423.00 108.00" vector-effect="non-scaling-stroke"/>
		<path stroke="#23FE00" d="M 769.00 107.50 C 771.32 105.57 773.13 105.00 777.00 105.00 C 780.50 105.00 782.75 105.60 784.50 107.00 C 785.88 108.10 787.67 110.35 788.50 112.00 C 789.33 113.65 790.00 115.45 790.00 116.00 C 790.00 116.61 785.17 117.00 777.50 117.00 C 770.62 117.00 764.77 116.78 764.50 116.50 C 764.23 116.22 764.45 114.65 765.00 113.00 C 765.55 111.35 767.35 108.88 769.00 107.50" vector-effect="non-scaling-stroke"/>
		<path stroke="#00B6FDE8" d="M 67.00 123.00 L 67.00 123.00 C 67.00 123.00 67.45 123.00 68.00 123.00 C 68.55 123.00 69.00 122.78 69.00 122.00" vector-effect="non-scaling-stroke"/>
		<path stroke="#0000FF01" d="M 98.00 150.00 L 98.00 150.00 C 98.00 150.00 97.33 149.55 96.50 149.00 C 95.67 148.45 95.00 147.78 95.00 147.00" vector-effect="non-scaling-stroke"/>
		<path stroke="#12FE0011" d="M 599.00 149.00 L 599.00 149.00 C 599.00 149.00 599.23 149.00 599.50 149.00 C 599.77 149.00 600.00 149.22 600.00 150.00" vector-effect="non-scaling-stroke"/>
		<path stroke="#12FE0011" d="M 598.00 162.00 L 598.00 162.00 C 598.00 162.00 598.00 161.78 598.00 161.50 C 598.00 161.22 598.00 158.30 598.00 149.00" vector-effect="non-scaling-stroke"/>
		<path stroke="#0000FF01" d="M 101.00 153.00 L 101.00 153.00 C 101.00 153.00 100.78 153.00 100.50 153.00 C 100.22 153.00 100.00 152.55 100.00 151.00" vector-effect="non-scaling-stroke"/>
		<path stroke="#0046AA01" d="M 87.00 211.00 L 87.00 211.00 C 87.00 211.00 87.00 211.22 87.00 211.50 C 87.00 211.78 86.10 212.00 83.00 212.00" vector-effect="non-scaling-stroke"/>
		<path stroke="#0000FF01" d="M 102.00 211.00 L 102.00 211.00 C 102.00 211.00 102.00 211.22 102.00 212.00" vector-effect="non-scaling-stroke"/>
	</g>
	<path fill="#FED05BEB" d="M 168.00 0.00 C 168.00 72.08 168.00 93.22 168.00 93.50 C 168.00 93.78 168.00 94.00 168.00 94.00 L 168.00 94.00 C 168.00 97.10 168.00 98.22 168.00 98.50 C 168.00 98.78 168.00 99.00 168.00 99.00 L 168.00 99.00 C 147.07 119.92 140.10 126.22 139.00 126.50 C 137.90 126.78 137.00 127.00 137.00 127.00 L 137.00 127.00 C 137.00 29.35 137.00 0.78 137.00 0.50 C 137.00 0.22 143.97 0.00 152.50 0.00 C 161.03 0.00 168.00 0.00 168.00 0.00 L 168.00 0.00 Z" fill-rule="evenodd"/>
	<path fill="#FF000001" d="M 168.00 0.00 C 169.65 0.00 170.00 16.50 170.00 47.50 C 170.00 73.62 170.00 95.00 170.00 95.00 L 170.00 95.00 C 170.00 95.78 170.00 96.00 170.00 96.00 L 170.00 96.00 C 169.22 94.45 168.78 94.00 168.50 94.00 C 168.22 94.00 168.00 94.00 168.00 94.00 L 168.00 94.00 L 168.00 94.00 C 168.00 94.00 168.00 93.78 168.00 93.50 C 168.00 93.22 168.00 72.08 168.00 0.00 Z" fill-rule="evenodd"/>
	<path fill="#FECC59E7" d="M 130.00 133.00 C 128.45 136.88 127.55 138.22 127.00 138.50 C 126.45 138.78 119.92 133.15 112.50 126.00 C 104.24 118.05 98.81 112.03 98.50 110.50 C 98.22 109.12 98.00 108.00 98.00 108.00 L 98.00 108.00 C 98.00 42.90 98.00 23.77 98.00 23.50 C 98.00 23.23 105.20 23.00 114.00 23.00 L 130.00 23.00 C 130.00 108.25 130.00 133.00 130.00 133.00 L 130.00 133.00 Z" fill-rule="evenodd"/>
	<path fill="#23FE00FC" d="M 600.00 150.00 C 600.00 149.22 599.77 149.00 599.50 149.00 C 599.23 149.00 599.00 149.00 599.00 149.00 L 599.00 149.00 C 598.23 148.22 598.00 148.22 598.00 148.50 C 598.00 148.78 598.00 149.00 598.00 149.00 L 598.00 149.00 C 598.00 158.30 598.00 161.22 598.00 161.50 C 598.00 161.78 598.00 162.00 598.00 162.00 L 598.00 162.00 C 598.00 171.33 597.60 172.33 595.00 174.50 C 593.35 175.88 590.42 177.22 588.50 177.50 C 586.58 177.78 579.83 177.78 573.50 177.50 C 563.98 177.09 561.57 176.66 559.50 175.00 C 558.12 173.90 556.55 171.88 556.00 170.50 C 555.45 169.12 554.77 167.78 554.50 167.50 C 554.23 167.22 551.75 168.35 549.00 170.00 C 546.25 171.65 541.30 174.12 538.00 175.50 C 533.35 177.44 529.63 178.11 521.50 178.50 C 514.03 178.86 509.27 178.57 505.00 177.50 C 501.70 176.68 496.75 174.88 494.00 173.50 C 491.25 172.12 486.52 168.75 483.50 166.00 C 480.48 163.25 477.32 159.43 476.50 157.50 L 475.00 154.00 C 470.35 160.97 466.75 165.03 464.00 167.50 C 461.25 169.97 456.98 172.90 454.50 174.00 C 452.02 175.10 447.30 176.68 444.00 177.50 C 440.70 178.32 434.85 179.00 431.00 179.00 C 427.15 179.00 421.30 178.32 418.00 177.50 C 414.70 176.68 409.75 174.88 407.00 173.50 C 404.25 172.12 400.43 169.65 398.50 168.00 C 396.57 166.35 394.77 165.22 394.50 165.50 C 394.23 165.78 393.32 167.57 392.50 169.50 C 391.68 171.43 389.65 173.90 388.00 175.00 C 385.42 176.72 383.33 177.00 373.00 177.00 C 366.40 177.00 359.20 176.55 357.00 176.00 C 354.80 175.45 350.98 174.10 348.50 173.00 C 346.02 171.90 342.88 169.65 341.50 168.00 C 340.12 166.35 338.10 162.53 337.00 159.50 C 335.90 156.47 335.00 153.10 335.00 152.00 C 335.00 150.78 333.83 152.14 332.00 155.50 C 330.35 158.53 326.75 163.03 324.00 165.50 C 321.25 167.97 316.07 171.35 312.50 173.00 C 308.93 174.65 302.62 176.68 298.50 177.50 C 294.38 178.32 287.85 179.00 284.00 179.00 C 280.15 179.00 273.62 178.32 269.50 177.50 C 265.38 176.68 259.07 174.65 255.50 173.00 C 251.93 171.35 246.53 167.75 243.50 165.00 C 239.37 161.24 237.26 158.26 235.00 153.00 C 232.73 147.70 231.88 143.94 231.50 137.50 C 231.12 131.02 231.36 128.40 232.50 126.50 C 233.32 125.12 234.90 123.55 236.00 123.00 C 237.10 122.45 241.60 121.55 246.00 121.00 L 254.00 120.00 C 246.25 115.35 242.20 111.75 240.00 109.00 C 237.80 106.25 235.10 101.53 234.00 98.50 C 232.90 95.47 231.78 90.53 231.50 87.50 C 231.22 84.47 231.45 79.75 232.00 77.00 C 232.55 74.25 234.35 69.08 236.00 65.50 C 238.00 61.17 240.67 57.50 244.00 54.50 C 246.75 52.02 251.93 48.65 255.50 47.00 C 259.07 45.35 264.25 43.55 267.00 43.00 C 269.75 42.45 276.95 42.00 283.00 42.00 C 289.67 42.00 296.17 42.59 299.50 43.50 C 302.52 44.33 307.48 46.12 310.50 47.50 C 313.52 48.88 318.70 52.48 322.00 55.50 C 325.65 58.84 329.37 63.55 331.50 67.50 L 335.00 74.00 C 335.00 57.39 335.14 56.86 338.00 54.00 L 341.00 51.00 L 371.00 51.00 C 376.86 56.86 377.00 57.39 377.00 65.50 L 377.00 74.00 C 386.33 74.00 388.91 74.61 391.00 76.00 C 392.65 77.10 394.45 79.35 395.00 81.00 C 395.55 82.65 396.45 84.00 397.00 84.00 C 397.55 84.00 400.25 82.42 403.00 80.50 C 405.75 78.58 410.25 76.33 413.00 75.50 C 416.37 74.49 422.39 74.00 431.50 74.00 C 440.83 74.00 446.39 74.46 449.50 75.50 C 451.98 76.33 456.48 78.58 459.50 80.50 C 462.52 82.42 466.57 85.80 468.50 88.00 C 470.43 90.20 472.68 92.90 473.50 94.00 C 474.96 95.95 475.05 95.91 477.00 92.50 C 478.10 90.58 481.02 87.20 483.50 85.00 C 485.98 82.80 490.70 79.65 494.00 78.00 C 497.30 76.35 502.48 74.55 505.50 74.00 C 508.52 73.45 515.95 73.22 522.00 73.50 C 529.71 73.85 534.50 74.60 538.00 76.00 C 540.75 77.10 545.25 79.58 548.00 81.50 C 550.75 83.42 553.45 85.00 554.00 85.00 C 554.63 85.00 555.00 78.33 555.00 67.00 C 555.00 50.33 555.15 48.85 557.00 47.00 C 558.10 45.90 559.90 44.55 561.00 44.00 C 562.10 43.45 569.52 43.00 577.50 43.00 C 591.63 43.00 592.06 43.06 594.50 45.50 C 595.88 46.88 597.45 49.58 598.00 51.50 C 598.57 53.51 598.79 61.17 598.50 69.50 C 598.18 78.83 598.36 84.00 599.00 84.00 C 599.55 84.00 601.12 82.42 602.50 80.50 C 603.88 78.58 606.35 76.33 608.00 75.50 C 610.27 74.37 614.67 74.00 626.00 74.00 L 641.00 74.00 C 641.00 50.33 641.21 48.79 643.00 47.00 C 644.10 45.90 645.90 44.55 647.00 44.00 C 648.10 43.45 655.52 43.00 663.50 43.00 L 678.00 43.00 L 684.00 49.00 L 685.00 138.00 L 729.00 138.00 C 727.33 128.00 727.33 123.17 728.00 117.50 C 728.59 112.46 730.22 105.94 732.00 101.50 C 733.87 96.83 736.70 92.11 739.50 89.00 C 741.98 86.25 746.25 82.65 749.00 81.00 C 751.75 79.35 756.92 76.88 760.50 75.50 C 765.95 73.40 768.70 73.00 777.50 73.00 C 786.30 73.00 789.05 73.40 794.50 75.50 C 798.08 76.88 803.25 79.58 806.00 81.50 C 808.75 83.42 811.45 85.90 812.00 87.00 C 812.55 88.10 813.45 89.00 814.00 89.00 C 814.55 89.00 815.23 87.20 815.50 85.00 C 815.77 82.80 816.45 80.10 817.00 79.00 C 817.55 77.90 819.58 76.33 821.50 75.50 C 824.03 74.41 828.72 74.00 838.50 74.00 C 849.17 74.00 852.31 74.31 853.50 75.50 C 854.83 76.83 855.56 76.78 860.00 75.00 C 863.54 73.58 867.33 73.00 873.00 73.00 C 877.44 73.00 883.00 73.67 885.50 74.50 C 887.98 75.33 891.35 76.67 893.00 77.50 C 894.65 78.33 898.02 81.47 900.50 84.50 L 905.00 90.00 C 911.98 83.03 916.25 79.88 919.00 78.50 C 921.75 77.12 926.48 75.33 929.50 74.50 C 932.68 73.63 939.22 73.00 945.00 73.00 C 950.56 73.00 957.67 73.67 961.00 74.50 C 964.30 75.33 969.25 77.12 972.00 78.50 C 974.75 79.88 978.80 82.80 981.00 85.00 C 983.20 87.20 986.12 91.25 987.50 94.00 C 989.24 97.49 990.15 101.27 990.50 106.50 C 990.99 113.87 990.95 114.04 988.00 116.50 C 986.35 117.88 984.10 119.00 983.00 119.00 C 981.27 119.00 981.40 119.33 984.00 121.50 C 985.65 122.88 988.12 126.25 989.50 129.00 C 991.67 133.33 992.00 135.33 992.00 144.00 C 992.00 152.00 991.60 154.80 990.00 158.00 C 988.90 160.20 986.42 163.80 984.50 166.00 C 982.39 168.41 978.41 171.19 974.50 173.00 C 970.92 174.65 964.62 176.68 960.50 177.50 C 956.38 178.32 950.08 179.00 946.50 179.00 C 942.92 179.00 937.30 178.55 934.00 178.00 C 930.70 177.45 925.52 176.10 922.50 175.00 C 919.48 173.90 915.65 172.10 914.00 171.00 L 911.00 169.00 C 907.63 174.89 905.89 176.32 903.50 177.00 C 901.58 177.55 894.83 178.00 888.50 178.00 C 880.28 178.00 876.14 177.57 874.00 176.50 C 872.35 175.68 870.10 173.65 869.00 172.00 C 867.13 169.19 867.00 167.33 867.00 142.50 C 867.00 126.83 866.59 115.18 866.00 114.00 C 865.45 112.90 864.33 112.00 863.50 112.00 C 862.67 112.00 861.33 112.90 860.50 114.00 C 859.25 115.66 859.00 120.61 859.00 143.50 C 859.00 169.50 858.89 171.14 857.00 173.50 C 855.90 174.88 853.42 176.45 851.50 177.00 C 849.58 177.55 843.27 178.00 837.50 178.00 C 831.73 178.00 825.65 177.78 824.00 177.50 C 822.35 177.22 819.88 175.88 818.50 174.50 C 817.12 173.12 816.00 171.10 816.00 170.00 C 816.00 168.90 815.77 168.00 815.50 168.00 C 815.23 168.00 812.75 169.35 810.00 171.00 C 807.25 172.65 802.30 174.90 799.00 176.00 C 795.70 177.10 789.17 178.22 784.50 178.50 C 779.83 178.78 772.85 178.55 769.00 178.00 C 764.96 177.42 759.47 175.73 756.00 174.00 C 752.70 172.35 748.42 169.88 746.50 168.50 C 744.58 167.12 742.77 166.22 742.50 166.50 C 742.23 166.78 741.55 168.35 741.00 170.00 C 740.45 171.65 738.88 173.90 737.50 175.00 C 735.06 176.95 733.50 177.00 674.50 177.00 C 615.50 177.00 613.94 176.95 611.50 175.00 C 609.90 173.72 607.39 168.88 604.50 161.50 C 602.02 155.18 600.00 150.00 600.00 150.00 L 600.00 150.00 Z M 270.50 50.00 C 268.02 50.55 263.07 52.35 259.50 54.00 C 255.93 55.65 251.20 58.58 249.00 60.50 C 246.79 62.44 243.88 66.46 242.50 69.50 C 240.43 74.06 240.00 76.53 240.00 84.00 C 240.00 90.83 240.48 94.08 242.00 97.50 C 243.10 99.97 246.03 104.03 248.50 106.50 C 250.97 108.97 255.70 112.35 259.00 114.00 C 262.30 115.65 271.75 119.47 280.00 122.50 C 290.70 126.42 295.86 128.86 298.00 131.00 C 299.65 132.65 301.00 134.90 301.00 136.00 C 301.00 137.10 300.32 139.35 299.50 141.00 C 298.65 142.70 296.48 144.65 294.50 145.50 C 292.57 146.32 288.98 147.00 286.50 147.00 C 284.02 147.00 280.20 146.55 278.00 146.00 C 275.80 145.45 272.65 143.65 271.00 142.00 C 269.35 140.35 267.32 136.97 266.50 134.50 L 265.00 130.00 C 240.74 129.03 239.94 129.12 239.00 131.00 C 238.33 132.33 238.33 135.17 239.00 139.50 C 239.55 143.07 240.90 147.80 242.00 150.00 C 243.10 152.20 245.80 156.03 248.00 158.50 C 250.55 161.37 254.36 164.09 258.50 166.00 C 262.07 167.65 267.25 169.45 270.00 170.00 C 272.75 170.55 279.27 171.00 284.50 171.00 C 289.83 171.00 296.41 170.34 299.50 169.50 C 302.52 168.68 307.02 167.10 309.50 166.00 C 311.98 164.90 316.02 162.20 318.50 160.00 C 321.14 157.65 324.03 153.73 325.50 150.50 C 327.61 145.87 328.00 143.50 328.00 135.50 C 328.00 129.28 327.48 124.79 326.50 122.50 C 325.68 120.58 322.98 116.97 320.50 114.50 C 318.02 112.02 313.08 108.65 309.50 107.00 C 305.93 105.35 297.15 101.97 290.00 99.50 C 282.85 97.03 275.65 94.33 274.00 93.50 C 272.35 92.67 270.10 90.88 269.00 89.50 C 267.86 88.07 267.00 85.50 267.00 83.50 C 267.00 81.10 267.79 79.21 269.50 77.50 C 270.88 76.12 273.80 74.55 276.00 74.00 C 278.20 73.45 281.80 73.22 284.00 73.50 C 286.20 73.78 289.80 74.90 292.00 76.00 C 294.20 77.10 296.90 79.35 298.00 81.00 C 299.10 82.65 300.00 85.35 300.00 87.00 C 300.00 88.65 300.45 90.45 301.00 91.00 C 301.56 91.56 307.33 92.00 314.00 92.00 C 320.67 92.00 326.44 91.56 327.00 91.00 C 327.57 90.43 327.79 87.21 327.50 83.50 C 327.23 79.92 326.10 74.97 325.00 72.50 C 323.90 70.03 321.20 65.97 319.00 63.50 C 316.80 61.02 312.98 57.88 310.50 56.50 C 308.02 55.12 303.52 53.10 300.50 52.00 C 296.99 50.72 291.38 49.82 285.00 49.50 C 279.50 49.23 272.98 49.45 270.50 50.00 Z M 564.00 51.00 C 563.37 51.63 562.82 73.02 562.50 109.00 C 562.18 146.02 562.35 166.70 563.00 168.00 C 563.92 169.84 565.00 170.00 576.50 170.00 C 583.50 170.00 589.44 169.56 590.00 169.00 C 590.56 168.44 591.00 162.50 591.00 155.50 L 591.00 143.00 C 597.20 134.47 599.45 132.00 600.00 132.00 C 600.55 132.00 604.15 139.88 608.00 149.50 C 611.85 159.12 615.45 167.68 616.00 168.50 C 616.81 169.71 619.61 170.00 630.50 170.00 C 641.61 170.00 644.09 169.73 644.50 168.50 C 644.77 167.68 639.38 155.30 632.50 141.00 C 625.62 126.70 620.00 114.33 620.00 113.50 C 620.00 112.67 622.02 109.53 624.50 106.50 C 626.98 103.47 631.92 97.17 635.50 92.50 C 639.08 87.83 641.77 83.55 641.50 83.00 C 641.20 82.40 635.00 82.00 626.00 82.00 L 611.00 82.00 L 592.00 106.00 C 591.09 57.76 590.73 52.73 589.50 51.50 C 588.34 50.34 585.39 50.00 576.50 50.00 C 570.17 50.00 564.55 50.45 564.00 51.00 Z M 650.00 50.50 C 649.34 50.83 649.17 71.16 649.50 110.00 L 650.00 169.00 L 733.00 169.00 L 733.00 147.00 L 677.00 146.00 C 677.00 53.00 676.96 51.98 675.00 51.00 C 673.90 50.45 668.05 50.00 662.00 50.00 C 655.95 50.00 650.55 50.23 650.00 50.50 Z M 344.00 58.00 C 343.23 74.28 342.77 79.67 342.50 80.50 C 342.17 81.50 340.17 82.17 336.50 82.50 L 331.00 83.00 L 331.00 103.00 L 342.00 105.00 C 343.90 154.35 344.20 157.31 346.00 160.00 C 347.10 161.65 350.02 164.12 352.50 165.50 C 355.40 167.11 359.84 168.35 365.00 169.00 C 370.33 169.67 375.00 169.67 379.00 169.00 L 385.00 168.00 C 385.79 152.11 385.59 147.38 385.00 146.50 C 384.33 145.50 382.33 145.00 379.00 145.00 C 375.33 145.00 373.47 144.47 372.00 143.00 C 370.11 141.11 370.03 140.03 370.50 123.00 L 371.00 105.00 L 387.00 103.00 L 387.00 83.00 L 370.00 82.00 C 370.00 64.95 369.55 59.55 369.00 59.00 C 368.44 58.44 362.67 58.00 356.00 58.00 L 344.00 58.00 Z M 424.50 80.50 C 423.12 80.78 419.07 81.90 415.50 83.00 C 411.93 84.10 406.98 86.58 404.50 88.50 C 402.02 90.42 398.65 94.03 397.00 96.50 C 395.35 98.97 393.10 103.25 392.00 106.00 C 390.35 110.14 390.00 113.33 390.00 124.50 C 390.00 133.39 390.51 139.88 391.50 143.50 C 392.40 146.79 394.61 151.01 397.00 154.00 C 399.20 156.75 403.02 160.80 405.50 163.00 C 408.74 165.88 411.96 167.56 417.00 169.00 C 422.66 170.62 425.91 170.90 434.00 170.50 C 441.79 170.11 445.22 169.45 449.50 167.50 C 452.52 166.12 457.25 162.97 460.00 160.50 C 462.93 157.86 466.24 153.52 468.00 150.00 C 469.65 146.70 471.45 141.75 472.00 139.00 C 472.55 136.25 473.00 129.95 473.00 125.00 C 473.00 119.00 472.33 113.67 471.00 109.00 C 469.90 105.15 467.65 99.97 466.00 97.50 C 464.35 95.03 460.98 91.42 458.50 89.50 C 456.02 87.58 451.98 85.10 449.50 84.00 C 447.02 82.90 440.95 81.55 436.00 81.00 C 431.05 80.45 425.88 80.22 424.50 80.50 Z M 511.50 80.50 C 510.12 80.78 506.07 81.90 502.50 83.00 C 498.93 84.10 493.98 86.58 491.50 88.50 C 489.02 90.42 485.65 93.80 484.00 96.00 C 482.35 98.20 480.10 102.47 479.00 105.50 C 477.34 110.05 477.00 113.50 477.00 125.50 C 477.00 137.50 477.34 140.95 479.00 145.50 C 480.10 148.53 482.57 152.80 484.50 155.00 C 486.43 157.20 490.02 160.80 492.50 163.00 C 495.50 165.67 499.17 167.67 503.50 169.00 C 507.83 170.33 512.83 171.00 518.50 171.00 C 524.17 171.00 529.17 170.33 533.50 169.00 C 537.08 167.90 542.02 165.43 544.50 163.50 C 546.98 161.57 549.90 159.10 551.00 158.00 C 552.10 156.90 554.12 153.75 555.50 151.00 C 556.88 148.25 558.23 144.65 558.50 143.00 C 558.92 140.50 558.58 139.83 556.50 139.00 C 555.12 138.45 549.50 137.32 544.00 136.50 C 538.50 135.68 533.55 135.00 533.00 135.00 C 532.45 135.00 531.33 136.57 530.50 138.50 C 529.67 140.43 527.88 142.90 526.50 144.00 C 525.12 145.10 522.20 146.22 520.00 146.50 C 517.80 146.78 514.65 146.55 513.00 146.00 C 511.35 145.45 509.10 143.65 508.00 142.00 C 506.90 140.35 505.55 136.30 505.00 133.00 C 504.45 129.70 504.23 124.53 504.50 121.50 C 504.77 118.47 505.68 114.42 506.50 112.50 C 507.32 110.58 509.12 108.10 510.50 107.00 C 512.25 105.60 514.50 105.00 518.00 105.00 C 521.33 105.00 524.00 105.67 526.00 107.00 C 527.65 108.10 529.45 110.35 530.00 112.00 C 530.55 113.65 531.45 115.67 532.00 116.50 C 532.88 117.82 534.34 117.77 544.50 116.00 C 550.83 114.90 556.67 113.78 557.50 113.50 C 558.39 113.20 559.00 111.78 559.00 110.00 C 559.00 108.35 557.88 104.75 556.50 102.00 C 555.12 99.25 551.98 94.97 549.50 92.50 C 547.02 90.02 542.08 86.65 538.50 85.00 C 533.96 82.90 529.29 81.70 523.00 81.00 C 518.05 80.45 512.88 80.22 511.50 80.50 Z M 768.50 81.00 C 766.58 81.55 762.98 82.67 760.50 83.50 C 758.02 84.33 753.75 86.80 751.00 89.00 C 748.25 91.20 744.65 95.03 743.00 97.50 C 741.35 99.97 739.10 104.47 738.00 107.50 C 736.90 110.53 735.77 116.15 735.50 120.00 C 735.23 123.85 735.45 130.15 736.00 134.00 C 736.55 137.85 738.12 143.47 739.50 146.50 C 740.88 149.53 743.58 154.03 745.50 156.50 C 747.42 158.97 751.25 162.35 754.00 164.00 C 756.75 165.65 761.70 167.90 765.00 169.00 C 769.22 170.41 773.67 171.00 780.00 171.00 C 785.11 171.00 791.16 170.35 794.00 169.50 C 796.75 168.68 801.25 166.88 804.00 165.50 C 806.75 164.12 810.35 161.43 812.00 159.50 L 815.00 156.00 C 810.35 149.80 807.20 146.20 805.00 144.00 L 801.00 140.00 C 792.13 145.32 789.42 146.11 784.00 146.50 C 780.15 146.78 775.42 146.55 773.50 146.00 C 771.58 145.45 768.88 143.65 767.50 142.00 C 766.12 140.35 764.77 137.88 764.50 136.50 L 764.00 134.00 C 813.89 134.00 818.15 133.77 819.00 132.50 C 819.67 131.50 819.67 128.50 819.00 123.50 C 818.45 119.38 817.10 113.08 816.00 109.50 C 814.90 105.92 812.20 100.30 810.00 97.00 C 807.80 93.70 804.42 89.88 802.50 88.50 C 800.58 87.12 796.52 84.88 793.50 83.50 C 789.67 81.76 785.57 80.85 780.00 80.50 C 775.60 80.22 770.42 80.45 768.50 81.00 Z M 868.50 80.50 C 867.67 80.78 865.42 81.45 863.50 82.00 C 861.58 82.55 858.20 84.58 856.00 86.50 L 852.00 90.00 C 852.00 86.12 851.33 84.33 850.50 83.50 C 849.27 82.27 846.76 82.09 836.50 82.50 L 824.00 83.00 C 823.18 152.18 823.35 167.53 824.00 168.50 C 824.80 169.70 827.50 170.00 837.50 170.00 C 849.00 170.00 850.08 169.84 851.00 168.00 C 851.59 166.81 852.00 155.00 852.00 139.00 L 852.00 112.00 C 858.46 105.54 859.69 105.00 863.50 105.00 C 865.98 105.00 868.90 105.67 870.00 106.50 C 871.10 107.33 872.45 108.90 873.00 110.00 C 873.55 111.10 874.45 124.82 875.00 140.50 L 876.00 169.00 L 902.00 169.00 C 902.91 111.46 902.74 105.05 901.50 100.50 C 900.46 96.67 898.63 93.48 895.50 90.00 C 892.59 86.77 889.23 84.29 886.00 83.00 C 883.25 81.90 878.52 80.78 875.50 80.50 C 872.48 80.22 869.33 80.22 868.50 80.50 Z M 936.00 81.00 C 933.25 81.55 928.98 82.67 926.50 83.50 C 924.02 84.33 919.98 86.58 917.50 88.50 C 914.88 90.54 911.95 94.09 910.50 97.00 C 908.60 100.79 908.00 103.57 908.00 108.50 C 908.00 112.08 908.45 116.12 909.00 117.50 C 909.55 118.88 911.58 121.80 913.50 124.00 C 915.50 126.29 920.00 129.50 924.00 131.50 C 928.31 133.65 935.42 135.96 942.50 137.50 C 948.83 138.88 954.67 140.68 955.50 141.50 C 956.33 142.32 957.00 143.68 957.00 144.50 C 957.00 145.32 956.55 146.45 956.00 147.00 C 955.45 147.55 954.10 148.45 953.00 149.00 C 951.90 149.55 948.75 150.00 946.00 150.00 C 943.25 150.00 939.65 149.32 938.00 148.50 C 935.94 147.47 934.84 146.06 934.50 144.00 L 934.00 141.00 L 908.00 142.00 C 907.10 150.12 907.49 151.78 909.50 155.00 C 910.88 157.20 913.80 160.57 916.00 162.50 C 918.20 164.43 922.48 166.90 925.50 168.00 C 930.08 169.67 933.50 170.00 946.00 170.00 C 958.33 170.00 962.07 169.64 967.00 168.00 C 971.40 166.53 974.33 164.67 978.00 161.00 C 981.33 157.67 983.33 154.67 984.00 152.00 C 984.55 149.80 985.00 145.75 985.00 143.00 C 985.00 140.17 984.13 136.05 983.00 133.50 C 981.79 130.78 979.22 127.61 976.50 125.50 C 974.02 123.58 969.52 121.10 966.50 120.00 C 963.48 118.90 956.50 117.10 951.00 116.00 C 945.50 114.90 939.65 113.33 938.00 112.50 C 935.87 111.43 935.00 110.28 935.00 108.50 C 935.00 106.90 935.90 105.46 937.50 104.50 C 938.91 103.65 942.39 103.00 945.50 103.00 C 949.50 103.00 951.68 103.55 953.50 105.00 C 954.88 106.10 956.45 107.90 957.00 109.00 C 957.89 110.78 959.28 111.06 969.50 111.50 C 976.38 111.80 981.60 111.60 982.50 111.00 C 983.74 110.18 983.82 109.12 983.00 105.00 C 982.45 102.25 981.33 98.65 980.50 97.00 C 979.67 95.35 977.20 92.42 975.00 90.50 C 972.80 88.58 968.52 85.88 965.50 84.50 C 961.88 82.86 956.75 81.66 950.50 81.00 C 944.17 80.33 939.33 80.33 936.00 81.00 Z M 276.00 81.50 C 275.45 81.78 275.00 82.67 275.00 83.50 C 275.00 84.33 276.35 85.67 278.00 86.50 C 279.65 87.33 283.25 88.90 286.00 90.00 C 288.75 91.10 291.45 92.00 292.00 92.00 C 292.55 92.00 293.00 91.33 293.00 90.50 C 293.00 89.67 292.32 87.65 291.50 86.00 C 290.63 84.27 288.73 82.58 287.00 82.00 C 285.35 81.45 282.43 81.00 280.50 81.00 C 278.57 81.00 276.55 81.22 276.00 81.50 Z M 312.00 99.00 C 317.43 102.10 319.90 103.67 321.00 104.50 C 322.85 105.88 322.96 105.85 322.50 104.00 C 322.23 102.90 322.00 101.33 322.00 100.50 C 322.00 99.37 320.78 99.00 317.00 99.00 L 312.00 99.00 Z M 640.00 99.00 C 631.48 110.62 629.00 114.45 629.00 115.00 C 629.00 115.55 631.70 121.40 635.00 128.00 L 641.00 140.00 L 640.00 99.00 Z M 330.00 112.50 C 330.00 112.78 331.12 114.80 332.50 117.00 L 335.00 121.00 C 335.00 112.37 334.80 112.00 332.50 112.00 C 331.12 112.00 330.00 112.22 330.00 112.50 Z M 377.00 112.00 C 377.00 131.38 377.23 137.22 377.50 137.50 C 377.77 137.78 378.90 138.00 380.00 138.00 C 381.90 138.00 382.00 137.33 382.00 125.00 L 382.00 112.00 L 377.00 112.00 Z M 515.00 113.50 C 514.45 114.33 513.55 115.90 513.00 117.00 C 512.45 118.10 512.00 121.92 512.00 125.50 C 512.00 129.28 512.63 133.26 513.50 135.00 C 514.67 137.33 515.67 138.00 518.00 138.00 C 520.13 138.00 521.43 137.28 522.50 135.50 C 523.33 134.12 524.67 132.10 525.50 131.00 C 526.33 129.90 528.80 128.55 531.00 128.00 C 533.94 127.26 537.25 127.40 543.50 128.50 C 548.17 129.32 552.67 130.00 553.50 130.00 C 554.58 130.00 555.00 128.89 555.00 126.00 C 555.00 122.11 554.92 122.01 552.00 122.50 C 550.35 122.78 546.30 123.45 543.00 124.00 C 539.70 124.55 535.42 125.00 533.50 125.00 C 531.10 125.00 529.21 124.21 527.50 122.50 C 526.12 121.12 524.33 118.65 523.50 117.00 C 522.63 115.27 520.73 113.58 519.00 113.00 C 516.64 112.21 515.79 112.32 515.00 113.50 Z M 274.00 129.00 C 274.00 132.10 274.45 133.90 275.00 135.00 C 275.55 136.10 277.35 137.45 279.00 138.00 C 280.65 138.55 284.02 139.00 286.50 139.00 C 289.39 139.00 291.36 138.46 292.00 137.50 C 292.78 136.33 292.33 135.67 290.00 134.50 C 288.35 133.68 284.07 132.10 280.50 131.00 L 274.00 129.00 Z M 813.50 142.00 C 813.77 142.55 814.23 142.78 814.50 142.50 C 814.77 142.22 814.55 141.78 814.00 141.50 C 813.45 141.22 813.23 141.45 813.50 142.00 Z" fill-rule="evenodd"/>
	<path fill="#FECC58DC" d="M 91.00 100.00 C 89.45 100.78 89.00 101.22 89.00 101.50 C 89.00 101.78 89.00 102.00 89.00 102.00 L 89.00 102.00 C 74.28 88.05 69.55 83.78 69.00 83.50 C 68.45 83.22 66.42 85.47 64.50 88.50 C 62.58 91.53 60.55 94.00 60.00 94.00 C 59.45 94.00 59.00 94.00 59.00 94.00 L 59.00 94.00 C 58.07 46.42 58.20 42.93 59.50 42.50 C 60.33 42.23 67.53 42.23 75.50 42.50 L 90.00 43.00 C 90.78 87.18 91.00 100.00 91.00 100.00 L 91.00 100.00 Z" fill-rule="evenodd"/>
	<path fill="#000000" d="M 270.50 50.00 C 272.98 49.45 279.50 49.23 285.00 49.50 C 291.38 49.82 296.99 50.72 300.50 52.00 C 303.52 53.10 308.02 55.12 310.50 56.50 C 312.98 57.88 316.80 61.02 319.00 63.50 C 321.20 65.97 323.90 70.03 325.00 72.50 C 326.10 74.97 327.23 79.92 327.50 83.50 C 327.79 87.21 327.57 90.43 327.00 91.00 C 326.44 91.56 320.67 92.00 314.00 92.00 C 307.33 92.00 301.56 91.56 301.00 91.00 C 300.45 90.45 300.00 88.65 300.00 87.00 C 300.00 85.35 299.10 82.65 298.00 81.00 C 296.90 79.35 294.20 77.10 292.00 76.00 C 289.80 74.90 286.20 73.78 284.00 73.50 C 281.80 73.22 278.20 73.45 276.00 74.00 C 273.80 74.55 270.88 76.12 269.50 77.50 C 267.79 79.21 267.00 81.10 267.00 83.50 C 267.00 85.50 267.86 88.07 269.00 89.50 C 270.10 90.88 272.35 92.67 274.00 93.50 C 275.65 94.33 282.85 97.03 290.00 99.50 C 297.15 101.97 305.93 105.35 309.50 107.00 C 313.08 108.65 318.02 112.02 320.50 114.50 C 322.98 116.97 325.68 120.58 326.50 122.50 C 327.48 124.79 328.00 129.28 328.00 135.50 C 328.00 143.50 327.61 145.87 325.50 150.50 C 324.03 153.73 321.14 157.65 318.50 160.00 C 316.02 162.20 311.98 164.90 309.50 166.00 C 307.02 167.10 302.52 168.68 299.50 169.50 C 296.41 170.34 289.83 171.00 284.50 171.00 C 279.27 171.00 272.75 170.55 270.00 170.00 C 267.25 169.45 262.07 167.65 258.50 166.00 C 254.36 164.09 250.55 161.37 248.00 158.50 C 245.80 156.03 243.10 152.20 242.00 150.00 C 240.90 147.80 239.55 143.07 239.00 139.50 C 238.33 135.17 238.33 132.33 239.00 131.00 C 239.94 129.12 240.74 129.03 265.00 130.00 L 266.50 134.50 C 267.32 136.97 269.35 140.35 271.00 142.00 C 272.65 143.65 275.80 145.45 278.00 146.00 C 280.20 146.55 284.02 147.00 286.50 147.00 C 288.98 147.00 292.57 146.32 294.50 145.50 C 296.48 144.65 298.65 142.70 299.50 141.00 C 300.32 139.35 301.00 137.10 301.00 136.00 C 301.00 134.90 299.65 132.65 298.00 131.00 C 295.86 128.86 290.70 126.42 280.00 122.50 C 271.75 119.47 262.30 115.65 259.00 114.00 C 255.70 112.35 250.97 108.97 248.50 106.50 C 246.03 104.03 243.10 99.97 242.00 97.50 C 240.48 94.08 240.00 90.83 240.00 84.00 C 240.00 76.53 240.43 74.06 242.50 69.50 C 243.88 66.46 246.79 62.44 249.00 60.50 C 251.20 58.58 255.93 55.65 259.50 54.00 C 263.07 52.35 268.02 50.55 270.50 50.00 Z" fill-rule="evenodd"/>
	<path fill="#000000" d="M 564.00 51.00 C 564.55 50.45 570.17 50.00 576.50 50.00 C 585.39 50.00 588.34 50.34 589.50 51.50 C 590.73 52.73 591.09 57.76 592.00 106.00 L 611.00 82.00 L 626.00 82.00 C 635.00 82.00 641.20 82.40 641.50 83.00 C 641.77 83.55 639.08 87.83 635.50 92.50 C 631.92 97.17 626.98 103.47 624.50 106.50 C 622.02 109.53 620.00 112.67 620.00 113.50 C 620.00 114.33 625.62 126.70 632.50 141.00 C 639.38 155.30 644.77 167.68 644.50 168.50 C 644.09 169.73 641.61 170.00 630.50 170.00 C 619.61 170.00 616.81 169.71 616.00 168.50 C 615.45 167.68 611.85 159.12 608.00 149.50 C 604.15 139.88 600.55 132.00 600.00 132.00 C 599.45 132.00 597.20 134.47 591.00 143.00 L 591.00 155.50 C 591.00 162.50 590.56 168.44 590.00 169.00 C 589.44 169.56 583.50 170.00 576.50 170.00 C 565.00 170.00 563.92 169.84 563.00 168.00 C 562.35 166.70 562.18 146.02 562.50 109.00 C 562.82 73.02 563.37 51.63 564.00 51.00 Z" fill-rule="evenodd"/>
	<path fill="#000000" d="M 650.00 50.50 C 650.55 50.23 655.95 50.00 662.00 50.00 C 668.05 50.00 673.90 50.45 675.00 51.00 C 676.96 51.98 677.00 53.00 677.00 146.00 L 733.00 147.00 L 733.00 169.00 L 650.00 169.00 L 649.50 110.00 C 649.17 71.16 649.34 50.83 650.00 50.50 Z" fill-rule="evenodd"/>
	<path fill="#000000" d="M 344.00 58.00 L 356.00 58.00 C 362.67 58.00 368.44 58.44 369.00 59.00 C 369.55 59.55 370.00 64.95 370.00 82.00 L 387.00 83.00 L 387.00 103.00 L 371.00 105.00 L 370.50 123.00 C 370.03 140.03 370.11 141.11 372.00 143.00 C 373.47 144.47 375.33 145.00 379.00 145.00 C 382.33 145.00 384.33 145.50 385.00 146.50 C 385.59 147.38 385.79 152.11 385.00 168.00 L 379.00 169.00 C 375.00 169.67 370.33 169.67 365.00 169.00 C 359.84 168.35 355.40 167.11 352.50 165.50 C 350.02 164.12 347.10 161.65 346.00 160.00 C 344.20 157.31 343.90 154.35 342.00 105.00 L 331.00 103.00 L 331.00 83.00 L 336.50 82.50 C 340.17 82.17 342.17 81.50 342.50 80.50 C 342.77 79.67 343.23 74.28 344.00 58.00 Z" fill-rule="evenodd"/>
	<path fill="#FECB5DED" d="M 50.00 105.00 C 50.00 107.33 43.70 116.10 36.00 126.00 C 28.30 135.90 21.55 144.22 21.00 144.50 C 20.45 144.78 20.00 145.00 20.00 145.00 L 20.00 145.00 C 20.00 80.17 20.36 65.82 21.00 65.50 C 21.55 65.22 27.62 65.00 34.50 65.00 C 41.38 65.00 47.67 65.22 48.50 65.50 C 49.76 65.92 50.00 69.06 50.00 85.50 C 50.00 96.22 50.00 105.00 50.00 105.00 L 50.00 105.00 Z" fill-rule="evenodd"/>
	<path fill="#2BFD32EB" d="M 20.00 145.00 L 20.00 145.00 C 20.00 145.00 20.45 144.78 21.00 144.50 C 21.55 144.22 28.30 135.90 36.00 126.00 C 43.70 116.10 50.00 107.33 50.00 105.00 C 53.10 102.67 54.00 101.33 54.00 100.50 C 54.00 99.67 54.67 98.78 55.50 98.50 C 56.33 98.22 56.77 97.78 56.50 97.50 C 56.23 97.22 56.67 96.33 57.50 95.50 C 58.33 94.67 59.00 94.00 59.00 94.00 L 59.00 94.00 L 59.00 94.00 C 59.00 94.00 59.45 94.00 60.00 94.00 C 60.55 94.00 62.58 91.53 64.50 88.50 C 66.42 85.47 68.45 83.22 69.00 83.50 C 69.55 83.78 74.28 88.05 89.00 102.00 C 89.78 102.00 90.00 102.00 90.00 102.00 L 90.00 102.00 C 91.55 104.33 92.45 105.00 93.00 105.00 C 93.55 105.00 94.90 105.67 96.00 106.50 C 97.10 107.33 98.00 108.00 98.00 108.00 L 98.00 108.00 L 98.00 108.00 C 98.00 108.00 98.22 109.12 98.50 110.50 C 98.81 112.03 104.24 118.05 112.50 126.00 C 119.92 133.15 126.45 138.78 127.00 138.50 C 127.55 138.22 128.45 136.88 130.00 133.00 C 134.65 129.12 136.22 127.78 136.50 127.50 C 136.78 127.22 137.00 127.00 137.00 127.00 L 137.00 127.00 L 137.00 127.00 C 137.00 127.00 137.90 126.78 139.00 126.50 C 140.10 126.22 147.07 119.92 168.00 99.00 C 169.55 98.22 170.00 97.55 170.00 97.00 C 170.00 96.45 170.00 96.00 170.00 96.00 L 170.00 96.00 L 170.00 96.00 C 170.00 96.00 170.00 95.78 170.00 95.00 C 173.10 92.67 174.45 91.78 175.00 91.50 C 175.55 91.22 176.00 90.55 176.00 90.00 C 176.00 89.45 176.45 89.00 177.00 89.00 C 177.55 89.00 179.12 87.88 180.50 86.50 C 181.88 85.12 183.45 83.33 184.00 82.50 C 184.73 81.41 184.45 80.32 183.00 78.50 C 181.90 77.12 181.00 75.55 181.00 75.00 C 181.00 74.45 181.68 74.00 182.50 74.00 C 183.32 74.00 185.12 73.33 186.50 72.50 C 187.88 71.67 189.90 71.22 191.00 71.50 C 192.10 71.78 193.90 71.33 195.00 70.50 C 196.21 69.59 198.18 69.20 200.00 69.50 C 201.67 69.78 203.00 69.56 203.00 69.00 C 203.00 68.45 203.45 68.22 204.00 68.50 C 204.55 68.78 205.22 68.55 205.50 68.00 C 205.78 67.45 207.35 67.00 209.00 67.00 C 210.65 67.00 212.68 66.55 213.50 66.00 C 214.58 65.28 215.28 65.42 216.00 66.50 C 216.55 67.33 216.78 68.90 216.50 70.00 C 216.22 71.10 215.55 72.00 215.00 72.00 C 214.45 72.00 214.00 72.90 214.00 74.00 C 214.00 75.10 213.78 77.58 213.50 79.50 C 213.22 81.42 212.55 82.78 212.00 82.50 C 211.45 82.22 211.00 82.90 211.00 84.00 C 211.00 85.10 211.00 86.90 211.00 88.00 C 211.00 89.10 210.55 89.78 210.00 89.50 C 209.43 89.21 209.00 90.50 209.00 92.50 C 209.00 94.42 208.55 96.45 208.00 97.00 C 207.45 97.55 206.78 98.67 206.50 99.50 C 206.17 100.50 205.67 100.67 205.00 100.00 C 204.45 99.45 204.00 99.22 204.00 99.50 C 204.00 99.78 203.10 99.10 202.00 98.00 C 200.80 96.80 199.20 96.20 198.00 96.50 C 196.90 96.78 196.22 97.45 196.50 98.00 C 196.78 98.55 196.10 99.67 195.00 100.50 C 193.90 101.33 193.00 101.78 193.00 101.50 C 193.00 101.22 189.18 105.05 184.50 110.00 C 179.82 114.95 175.55 118.78 175.00 118.50 C 174.45 118.22 174.00 118.67 174.00 119.50 C 174.00 120.33 173.55 121.00 173.00 121.00 C 172.45 121.00 169.75 123.47 167.00 126.50 C 164.25 129.53 161.55 131.78 161.00 131.50 C 160.45 131.22 159.78 131.90 159.50 133.00 C 159.22 134.10 158.55 135.00 158.00 135.00 C 157.45 135.00 154.75 137.25 152.00 140.00 C 149.25 142.75 146.55 145.00 146.00 145.00 C 145.45 145.00 145.22 145.22 145.50 145.50 C 145.78 145.78 144.65 147.57 143.00 149.50 C 141.35 151.43 139.55 153.00 139.00 153.00 C 138.45 153.00 135.30 155.70 132.00 159.00 C 126.38 164.62 125.87 164.90 124.00 163.50 C 122.90 162.68 119.97 160.20 117.50 158.00 C 115.03 155.80 113.22 153.55 113.50 153.00 C 113.78 152.45 113.33 151.55 112.50 151.00 C 111.67 150.45 110.78 150.22 110.50 150.50 C 110.22 150.78 110.22 150.55 110.50 150.00 C 110.78 149.45 110.55 149.00 110.00 149.00 C 109.45 149.00 107.65 147.88 106.00 146.50 C 104.35 145.12 103.00 143.32 103.00 142.50 C 103.00 141.68 102.55 141.22 102.00 141.50 C 101.45 141.78 100.55 141.32 100.00 140.50 C 99.45 139.68 99.22 138.78 99.50 138.50 C 99.78 138.22 99.55 138.00 99.00 138.00 C 98.45 138.00 95.97 136.20 93.50 134.00 C 91.03 131.80 89.00 129.32 89.00 128.50 C 89.00 127.67 88.78 127.22 88.50 127.50 C 88.22 127.78 86.65 126.65 85.00 125.00 C 83.35 123.35 81.55 121.33 81.00 120.50 C 80.45 119.67 79.10 118.55 78.00 118.00 C 76.90 117.45 76.00 116.33 76.00 115.50 C 76.00 114.67 74.88 113.10 73.50 112.00 C 72.12 110.90 70.33 109.78 69.50 109.50 C 68.56 109.19 65.93 111.26 62.50 115.00 C 59.48 118.30 56.55 120.78 56.00 120.50 C 55.45 120.22 55.00 120.67 55.00 121.50 C 55.00 122.33 52.98 124.80 50.50 127.00 C 48.02 129.20 40.38 136.40 33.50 143.00 C 26.62 149.60 20.55 155.00 20.00 155.00 C 19.45 155.00 19.00 155.68 19.00 156.50 C 19.00 157.32 18.10 158.45 17.00 159.00 C 15.90 159.55 12.08 162.93 8.50 166.50 C 4.92 170.07 1.55 173.00 1.00 173.00 C 0.45 173.00 0.00 172.55 0.00 172.00 C 0.00 171.45 0.90 170.10 2.00 169.00 C 3.10 167.90 3.77 166.78 3.50 166.50 C 3.23 166.22 3.67 165.78 4.50 165.50 C 5.33 165.22 5.78 164.55 5.50 164.00 C 5.22 163.45 5.45 163.22 6.00 163.50 C 6.55 163.78 7.00 163.32 7.00 162.50 C 7.00 161.68 7.67 160.55 8.50 160.00 C 9.32 159.45 9.78 159.00 9.50 159.00 C 9.22 159.00 10.35 157.20 12.00 155.00 C 13.65 152.80 16.12 149.65 17.50 148.00 C 18.88 146.35 20.00 145.00 20.00 145.00 L 20.00 145.00 Z" fill-rule="evenodd"/>
	<path fill="#000000" d="M 424.50 80.50 C 425.88 80.22 431.05 80.45 436.00 81.00 C 440.95 81.55 447.02 82.90 449.50 84.00 C 451.98 85.10 456.02 87.58 458.50 89.50 C 460.98 91.42 464.35 95.03 466.00 97.50 C 467.65 99.97 469.90 105.15 471.00 109.00 C 472.33 113.67 473.00 119.00 473.00 125.00 C 473.00 129.95 472.55 136.25 472.00 139.00 C 471.45 141.75 469.65 146.70 468.00 150.00 C 466.24 153.52 462.93 157.86 460.00 160.50 C 457.25 162.97 452.52 166.12 449.50 167.50 C 445.22 169.45 441.79 170.11 434.00 170.50 C 425.91 170.90 422.66 170.62 417.00 169.00 C 411.96 167.56 408.74 165.88 405.50 163.00 C 403.02 160.80 399.20 156.75 397.00 154.00 C 394.61 151.01 392.40 146.79 391.50 143.50 C 390.51 139.88 390.00 133.39 390.00 124.50 C 390.00 113.33 390.35 110.14 392.00 106.00 C 393.10 103.25 395.35 98.97 397.00 96.50 C 398.65 94.03 402.02 90.42 404.50 88.50 C 406.98 86.58 411.93 84.10 415.50 83.00 C 419.07 81.90 423.12 80.78 424.50 80.50 Z M 423.00 108.00 C 421.35 109.65 419.32 113.25 418.50 116.00 C 417.68 118.75 417.00 122.80 417.00 125.00 C 417.00 127.20 417.45 131.25 418.00 134.00 C 418.75 137.75 420.00 140.00 423.00 143.00 C 426.33 146.33 427.67 147.00 431.00 147.00 C 433.33 147.00 436.25 146.17 438.00 145.00 C 439.65 143.90 441.68 141.43 442.50 139.50 C 443.32 137.57 444.23 132.40 444.50 128.00 C 444.77 123.60 444.55 118.20 444.00 116.00 C 443.43 113.71 441.50 110.50 439.50 108.50 C 436.43 105.43 435.38 105.00 431.00 105.00 C 426.78 105.00 425.53 105.47 423.00 108.00 Z" fill-rule="evenodd"/>
	<path fill="#000000" d="M 511.50 80.50 C 512.88 80.22 518.05 80.45 523.00 81.00 C 529.29 81.70 533.96 82.90 538.50 85.00 C 542.08 86.65 547.02 90.02 549.50 92.50 C 551.98 94.97 555.12 99.25 556.50 102.00 C 557.88 104.75 559.00 108.35 559.00 110.00 C 559.00 111.78 558.39 113.20 557.50 113.50 C 556.67 113.78 550.83 114.90 544.50 116.00 C 534.34 117.77 532.88 117.82 532.00 116.50 C 531.45 115.67 530.55 113.65 530.00 112.00 C 529.45 110.35 527.65 108.10 526.00 107.00 C 524.00 105.67 521.33 105.00 518.00 105.00 C 514.50 105.00 512.25 105.60 510.50 107.00 C 509.12 108.10 507.32 110.58 506.50 112.50 C 505.68 114.42 504.77 118.47 504.50 121.50 C 504.23 124.53 504.45 129.70 505.00 133.00 C 505.55 136.30 506.90 140.35 508.00 142.00 C 509.10 143.65 511.35 145.45 513.00 146.00 C 514.65 146.55 517.80 146.78 520.00 146.50 C 522.20 146.22 525.12 145.10 526.50 144.00 C 527.88 142.90 529.67 140.43 530.50 138.50 C 531.33 136.57 532.45 135.00 533.00 135.00 C 533.55 135.00 538.50 135.68 544.00 136.50 C 549.50 137.32 555.12 138.45 556.50 139.00 C 558.58 139.83 558.92 140.50 558.50 143.00 C 558.23 144.65 556.88 148.25 555.50 151.00 C 554.12 153.75 552.10 156.90 551.00 158.00 C 549.90 159.10 546.98 161.57 544.50 163.50 C 542.02 165.43 537.08 167.90 533.50 169.00 C 529.17 170.33 524.17 171.00 518.50 171.00 C 512.83 171.00 507.83 170.33 503.50 169.00 C 499.17 167.67 495.50 165.67 492.50 163.00 C 490.02 160.80 486.43 157.20 484.50 155.00 C 482.57 152.80 480.10 148.53 479.00 145.50 C 477.34 140.95 477.00 137.50 477.00 125.50 C 477.00 113.50 477.34 110.05 479.00 105.50 C 480.10 102.47 482.35 98.20 484.00 96.00 C 485.65 93.80 489.02 90.42 491.50 88.50 C 493.98 86.58 498.93 84.10 502.50 83.00 C 506.07 81.90 510.12 80.78 511.50 80.50 Z" fill-rule="evenodd"/>
	<path fill="#000000" d="M 768.50 81.00 C 770.42 80.45 775.60 80.22 780.00 80.50 C 785.57 80.85 789.67 81.76 793.50 83.50 C 796.52 84.88 800.58 87.12 802.50 88.50 C 804.42 89.88 807.80 93.70 810.00 97.00 C 812.20 100.30 814.90 105.92 816.00 109.50 C 817.10 113.08 818.45 119.38 819.00 123.50 C 819.67 128.50 819.67 131.50 819.00 132.50 C 818.15 133.77 813.89 134.00 764.00 134.00 L 764.50 136.50 C 764.77 137.88 766.12 140.35 767.50 142.00 C 768.88 143.65 771.58 145.45 773.50 146.00 C 775.42 146.55 780.15 146.78 784.00 146.50 C 789.42 146.11 792.13 145.32 801.00 140.00 L 805.00 144.00 C 807.20 146.20 810.35 149.80 815.00 156.00 L 812.00 159.50 C 810.35 161.43 806.75 164.12 804.00 165.50 C 801.25 166.88 796.75 168.68 794.00 169.50 C 791.16 170.35 785.11 171.00 780.00 171.00 C 773.67 171.00 769.22 170.41 765.00 169.00 C 761.70 167.90 756.75 165.65 754.00 164.00 C 751.25 162.35 747.42 158.97 745.50 156.50 C 743.58 154.03 740.88 149.53 739.50 146.50 C 738.12 143.47 736.55 137.85 736.00 134.00 C 735.45 130.15 735.23 123.85 735.50 120.00 C 735.77 116.15 736.90 110.53 738.00 107.50 C 739.10 104.47 741.35 99.97 743.00 97.50 C 744.65 95.03 748.25 91.20 751.00 89.00 C 753.75 86.80 758.02 84.33 760.50 83.50 C 762.98 82.67 766.58 81.55 768.50 81.00 Z M 769.00 107.50 C 767.35 108.88 765.55 111.35 765.00 113.00 C 764.45 114.65 764.23 116.22 764.50 116.50 C 764.77 116.78 770.62 117.00 777.50 117.00 C 785.17 117.00 790.00 116.61 790.00 116.00 C 790.00 115.45 789.33 113.65 788.50 112.00 C 787.67 110.35 785.88 108.10 784.50 107.00 C 782.75 105.60 780.50 105.00 777.00 105.00 C 773.13 105.00 771.32 105.57 769.00 107.50 Z" fill-rule="evenodd"/>
	<path fill="#000000" d="M 868.50 80.50 C 869.33 80.22 872.48 80.22 875.50 80.50 C 878.52 80.78 883.25 81.90 886.00 83.00 C 889.23 84.29 892.59 86.77 895.50 90.00 C 898.63 93.48 900.46 96.67 901.50 100.50 C 902.74 105.05 902.91 111.46 902.00 169.00 L 876.00 169.00 L 875.00 140.50 C 874.45 124.82 873.55 111.10 873.00 110.00 C 872.45 108.90 871.10 107.33 870.00 106.50 C 868.90 105.67 865.98 105.00 863.50 105.00 C 859.69 105.00 858.46 105.54 852.00 112.00 L 852.00 139.00 C 852.00 155.00 851.59 166.81 851.00 168.00 C 850.08 169.84 849.00 170.00 837.50 170.00 C 827.50 170.00 824.80 169.70 824.00 168.50 C 823.35 167.53 823.18 152.18 824.00 83.00 L 836.50 82.50 C 846.76 82.09 849.27 82.27 850.50 83.50 C 851.33 84.33 852.00 86.12 852.00 90.00 L 856.00 86.50 C 858.20 84.58 861.58 82.55 863.50 82.00 C 865.42 81.45 867.67 80.78 868.50 80.50 Z" fill-rule="evenodd"/>
	<path fill="#000000" d="M 936.00 81.00 C 939.33 80.33 944.17 80.33 950.50 81.00 C 956.75 81.66 961.88 82.86 965.50 84.50 C 968.52 85.88 972.80 88.58 975.00 90.50 C 977.20 92.42 979.67 95.35 980.50 97.00 C 981.33 98.65 982.45 102.25 983.00 105.00 C 983.82 109.12 983.74 110.18 982.50 111.00 C 981.60 111.60 976.38 111.80 969.50 111.50 C 959.28 111.06 957.89 110.78 957.00 109.00 C 956.45 107.90 954.88 106.10 953.50 105.00 C 951.68 103.55 949.50 103.00 945.50 103.00 C 942.39 103.00 938.91 103.65 937.50 104.50 C 935.90 105.46 935.00 106.90 935.00 108.50 C 935.00 110.28 935.87 111.43 938.00 112.50 C 939.65 113.33 945.50 114.90 951.00 116.00 C 956.50 117.10 963.48 118.90 966.50 120.00 C 969.52 121.10 974.02 123.58 976.50 125.50 C 979.22 127.61 981.79 130.78 983.00 133.50 C 984.13 136.05 985.00 140.17 985.00 143.00 C 985.00 145.75 984.55 149.80 984.00 152.00 C 983.33 154.67 981.33 157.67 978.00 161.00 C 974.33 164.67 971.40 166.53 967.00 168.00 C 962.07 169.64 958.33 170.00 946.00 170.00 C 933.50 170.00 930.08 169.67 925.50 168.00 C 922.48 166.90 918.20 164.43 916.00 162.50 C 913.80 160.57 910.88 157.20 909.50 155.00 C 907.49 151.78 907.10 150.12 908.00 142.00 L 934.00 141.00 L 934.50 144.00 C 934.84 146.06 935.94 147.47 938.00 148.50 C 939.65 149.32 943.25 150.00 946.00 150.00 C 948.75 150.00 951.90 149.55 953.00 149.00 C 954.10 148.45 955.45 147.55 956.00 147.00 C 956.55 146.45 957.00 145.32 957.00 144.50 C 957.00 143.68 956.33 142.32 955.50 141.50 C 954.67 140.68 948.83 138.88 942.50 137.50 C 935.42 135.96 928.31 133.65 924.00 131.50 C 920.00 129.50 915.50 126.29 913.50 124.00 C 911.58 121.80 909.55 118.88 909.00 117.50 C 908.45 116.12 908.00 112.08 908.00 108.50 C 908.00 103.57 908.60 100.79 910.50 97.00 C 911.95 94.09 914.88 90.54 917.50 88.50 C 919.98 86.58 924.02 84.33 926.50 83.50 C 928.98 82.67 933.25 81.55 936.00 81.00 Z" fill-rule="evenodd"/>
	<path fill="#06320604" d="M 168.00 94.00 L 168.00 94.00 C 168.00 94.00 168.22 94.00 168.50 94.00 C 168.78 94.00 169.22 94.45 170.00 96.00 L 170.00 96.00 C 170.00 96.00 170.00 96.45 170.00 97.00 C 170.00 97.55 169.55 98.22 168.00 99.00 L 168.00 99.00 C 168.00 99.00 168.00 98.78 168.00 98.50 C 168.00 98.22 168.00 97.10 168.00 94.00 Z" fill-rule="evenodd"/>
	<path fill="#FF7F0002" d="M 91.00 100.00 C 91.00 101.55 90.78 102.00 90.50 102.00 C 90.22 102.00 90.00 102.00 90.00 102.00 L 90.00 102.00 L 90.00 102.00 C 90.00 102.00 89.78 102.00 89.00 102.00 L 89.00 102.00 C 89.00 102.00 89.00 101.78 89.00 101.50 C 89.00 101.22 89.45 100.78 91.00 100.00 Z" fill-rule="evenodd"/>
	<path fill="#23FE00FC" d="M 423.00 108.00 C 425.53 105.47 426.78 105.00 431.00 105.00 C 435.38 105.00 436.43 105.43 439.50 108.50 C 441.50 110.50 443.43 113.71 444.00 116.00 C 444.55 118.20 444.77 123.60 444.50 128.00 C 444.23 132.40 443.32 137.57 442.50 139.50 C 441.68 141.43 439.65 143.90 438.00 145.00 C 436.25 146.17 433.33 147.00 431.00 147.00 C 427.67 147.00 426.33 146.33 423.00 143.00 C 420.00 140.00 418.75 137.75 418.00 134.00 C 417.45 131.25 417.00 127.20 417.00 125.00 C 417.00 122.80 417.68 118.75 418.50 116.00 C 419.32 113.25 421.35 109.65 423.00 108.00 Z M 427.00 115.50 C 425.56 118.01 425.00 120.83 425.00 125.50 C 425.00 130.33 425.51 132.77 427.00 135.00 C 428.10 136.65 430.12 138.22 431.50 138.50 C 433.52 138.90 434.29 138.42 435.50 136.00 C 436.62 133.75 436.87 130.86 436.50 124.50 C 436.19 119.20 435.44 115.25 434.50 114.00 C 433.68 112.90 432.10 112.00 431.00 112.00 C 429.76 112.00 428.24 113.33 427.00 115.50 Z" fill-rule="evenodd"/>
	<path fill="#23FE00" d="M 769.00 107.50 C 771.32 105.57 773.13 105.00 777.00 105.00 C 780.50 105.00 782.75 105.60 784.50 107.00 C 785.88 108.10 787.67 110.35 788.50 112.00 C 789.33 113.65 790.00 115.45 790.00 116.00 C 790.00 116.61 785.17 117.00 777.50 117.00 C 770.62 117.00 764.77 116.78 764.50 116.50 C 764.23 116.22 764.45 114.65 765.00 113.00 C 765.55 111.35 767.35 108.88 769.00 107.50 Z" fill-rule="evenodd"/>
	<path fill="#0000FF01" d="M 69.00 122.00 C 69.00 122.78 68.55 123.00 68.00 123.00 C 67.45 123.00 67.00 123.00 67.00 123.00 L 67.00 123.00 C 68.55 121.45 69.00 121.22 69.00 121.50 C 69.00 121.78 69.00 122.00 69.00 122.00 L 69.00 122.00 Z" fill-rule="evenodd"/>
	<path fill="#00B6FDE8" d="M 73.00 152.00 C 71.45 149.68 70.33 149.00 69.50 149.00 C 68.67 149.00 62.15 154.85 55.00 162.00 C 47.85 169.15 39.75 177.03 37.00 179.50 C 33.11 183.00 32.22 184.33 33.00 185.50 C 33.55 186.32 35.12 187.90 36.50 189.00 C 37.88 190.10 40.12 192.12 41.50 193.50 C 42.88 194.88 44.00 195.78 44.00 195.50 C 44.00 195.22 46.48 196.57 49.50 198.50 C 52.52 200.43 55.67 202.45 56.50 203.00 C 57.33 203.55 58.00 203.78 58.00 203.50 C 58.00 203.22 59.35 203.68 61.00 204.50 C 62.65 205.32 64.90 206.22 66.00 206.50 C 67.10 206.78 68.67 207.45 69.50 208.00 C 70.33 208.55 71.90 209.00 73.00 209.00 C 74.10 209.00 76.80 209.68 79.00 210.50 C 81.20 211.32 83.00 212.00 83.00 212.00 L 83.00 212.00 C 86.10 212.00 87.00 211.78 87.00 211.50 C 87.00 211.22 87.00 211.00 87.00 211.00 L 87.00 211.00 C 90.88 211.00 92.22 211.45 92.50 212.00 C 92.78 212.55 94.80 212.78 97.00 212.50 C 99.20 212.22 101.00 212.00 101.00 212.00 L 101.00 212.00 C 101.78 212.78 102.00 212.78 102.00 212.50 C 102.00 212.22 102.00 212.00 102.00 212.00 L 102.00 212.00 C 102.00 211.22 102.00 211.00 102.00 211.00 L 102.00 211.00 C 111.30 211.78 114.90 211.55 116.00 211.00 C 117.10 210.45 118.00 210.22 118.00 210.50 C 118.00 210.78 118.45 210.55 119.00 210.00 C 119.55 209.45 121.12 209.00 122.50 209.00 C 123.88 209.00 126.12 208.32 127.50 207.50 C 128.88 206.68 130.22 206.22 130.50 206.50 C 130.78 206.78 132.12 206.10 133.50 205.00 C 134.88 203.90 136.90 203.00 138.00 203.00 C 139.10 203.00 140.45 202.55 141.00 202.00 C 141.55 201.45 142.00 201.22 142.00 201.50 C 142.00 201.78 144.47 200.20 147.50 198.00 C 150.53 195.80 153.00 194.22 153.00 194.50 C 153.00 194.78 153.90 194.32 155.00 193.50 C 156.10 192.68 159.93 189.07 163.50 185.50 C 167.07 181.93 170.00 178.55 170.00 178.00 C 170.00 177.45 170.68 177.00 171.50 177.00 C 172.32 177.00 172.78 176.55 172.50 176.00 C 172.22 175.45 172.45 175.00 173.00 175.00 C 173.55 175.00 174.00 174.32 174.00 173.50 C 174.00 172.68 174.68 171.55 175.50 171.00 C 176.32 170.45 177.68 168.43 178.50 166.50 C 179.32 164.57 180.45 162.32 181.00 161.50 C 181.55 160.68 182.45 158.88 183.00 157.50 C 183.55 156.12 184.68 153.65 185.50 152.00 C 186.32 150.35 186.78 148.55 186.50 148.00 C 186.22 147.45 186.68 145.88 187.50 144.50 C 188.32 143.12 188.78 140.88 188.50 139.50 C 188.22 138.12 188.68 134.53 189.50 131.50 C 190.32 128.47 191.00 125.10 191.00 124.00 C 191.00 122.15 191.67 122.00 200.00 122.00 L 209.00 122.00 C 209.00 132.85 209.00 137.35 209.00 139.00 C 209.00 140.65 208.55 142.68 208.00 143.50 C 207.45 144.32 207.00 146.35 207.00 148.00 C 207.00 149.65 206.55 151.45 206.00 152.00 C 205.45 152.55 205.00 153.68 205.00 154.50 C 205.00 155.32 204.78 156.90 204.50 158.00 C 204.22 159.10 203.55 160.00 203.00 160.00 C 202.45 160.00 202.00 160.90 202.00 162.00 C 202.00 163.10 201.55 164.22 201.00 164.50 C 200.45 164.78 200.22 165.45 200.50 166.00 C 200.78 166.55 200.10 168.12 199.00 169.50 C 197.90 170.88 197.22 172.45 197.50 173.00 C 197.78 173.55 197.32 174.22 196.50 174.50 C 195.68 174.78 195.22 175.45 195.50 176.00 C 195.78 176.55 195.55 177.00 195.00 177.00 C 194.45 177.00 194.22 177.22 194.50 177.50 C 194.78 177.78 194.10 178.90 193.00 180.00 C 191.90 181.10 191.00 182.68 191.00 183.50 C 191.00 184.32 190.55 185.00 190.00 185.00 C 189.45 185.00 189.00 185.45 189.00 186.00 C 189.00 186.55 187.65 188.57 186.00 190.50 C 184.35 192.43 180.07 196.93 176.50 200.50 C 172.93 204.07 169.10 207.68 168.00 208.50 C 166.90 209.32 163.53 211.57 160.50 213.50 C 157.47 215.43 154.55 217.00 154.00 217.00 C 153.45 217.00 153.00 217.45 153.00 218.00 C 153.00 218.55 152.10 219.00 151.00 219.00 C 149.90 219.00 148.78 219.45 148.50 220.00 C 148.22 220.55 147.32 221.22 146.50 221.50 C 145.68 221.78 144.32 222.22 143.50 222.50 C 142.68 222.78 140.65 223.68 139.00 224.50 C 137.35 225.32 135.55 225.78 135.00 225.50 C 134.45 225.22 134.22 225.45 134.50 226.00 C 134.78 226.55 134.32 227.00 133.50 227.00 C 132.68 227.00 130.88 227.00 129.50 227.00 C 128.12 227.00 127.22 227.45 127.50 228.00 C 127.78 228.55 127.10 229.00 126.00 229.00 C 124.90 229.00 122.20 229.22 120.00 229.50 C 117.80 229.78 108.80 230.00 100.00 230.00 C 91.20 230.00 81.75 230.00 79.00 230.00 C 76.25 230.00 73.55 229.55 73.00 229.00 C 72.45 228.45 70.20 227.78 68.00 227.50 C 65.80 227.22 63.33 226.55 62.50 226.00 C 61.67 225.45 60.55 225.00 60.00 225.00 C 59.45 225.00 58.10 224.55 57.00 224.00 C 55.90 223.45 55.00 223.22 55.00 223.50 C 55.00 223.78 53.88 223.32 52.50 222.50 C 51.12 221.68 50.00 221.22 50.00 221.50 C 50.00 221.78 49.33 221.55 48.50 221.00 C 47.67 220.45 46.33 219.78 45.50 219.50 C 44.67 219.22 43.55 218.55 43.00 218.00 C 42.45 217.45 41.55 216.78 41.00 216.50 C 40.45 216.22 39.55 215.55 39.00 215.00 C 38.45 214.45 37.55 214.00 37.00 214.00 C 36.45 214.00 35.10 213.10 34.00 212.00 C 32.90 210.90 31.32 209.55 30.50 209.00 C 29.68 208.45 28.55 208.00 28.00 208.00 C 27.45 208.00 25.65 206.65 24.00 205.00 C 22.35 203.35 21.00 201.55 21.00 201.00 C 21.00 200.45 20.32 200.00 19.50 200.00 C 18.68 200.00 17.55 198.88 17.00 197.50 C 16.45 196.12 15.32 195.00 14.50 195.00 C 13.68 195.00 13.22 194.78 13.50 194.50 C 13.78 194.22 12.65 192.65 11.00 191.00 C 9.35 189.35 8.00 187.55 8.00 187.00 C 8.00 186.45 7.55 186.00 7.00 186.00 C 6.45 186.00 6.00 184.88 6.00 183.50 C 6.00 181.67 8.13 179.00 14.00 173.50 C 18.40 169.38 29.43 159.03 38.50 150.50 C 47.58 141.97 57.70 132.30 61.00 129.00 C 64.30 125.70 67.00 123.00 67.00 123.00 L 67.00 123.00 L 67.00 123.00 C 67.00 123.00 67.45 123.00 68.00 123.00 C 68.55 123.00 69.00 122.78 69.00 122.00 C 71.33 124.33 72.45 124.78 73.00 124.50 C 73.55 124.22 74.00 124.45 74.00 125.00 C 74.00 125.55 78.72 130.72 84.50 136.50 C 90.28 142.28 95.00 147.00 95.00 147.00 L 95.00 147.00 C 95.00 147.78 95.67 148.45 96.50 149.00 C 97.33 149.55 98.00 150.00 98.00 150.00 L 98.00 150.00 C 98.00 150.78 98.45 151.00 99.00 151.00 C 99.55 151.00 100.00 151.00 100.00 151.00 L 100.00 151.00 C 100.00 152.55 100.22 153.00 100.50 153.00 C 100.78 153.00 101.00 153.00 101.00 153.00 L 101.00 153.00 C 118.83 170.82 124.67 176.22 125.50 176.50 C 126.38 176.79 128.67 175.33 131.00 173.00 C 133.20 170.80 135.00 169.22 135.00 169.50 C 135.00 169.78 137.93 167.07 141.50 163.50 C 145.07 159.93 148.45 157.00 149.00 157.00 C 149.55 157.00 149.78 156.55 149.50 156.00 C 149.22 155.45 150.35 154.10 152.00 153.00 C 153.65 151.90 158.38 147.62 162.50 143.50 C 166.62 139.38 170.45 135.78 171.00 135.50 C 171.55 135.22 172.22 134.78 172.50 134.50 C 172.78 134.22 173.00 134.00 173.00 134.00 L 173.00 134.00 C 182.30 124.70 185.68 121.78 186.50 121.50 C 187.32 121.22 188.00 121.22 188.00 121.50 C 188.00 121.78 187.55 122.90 187.00 124.00 C 186.45 125.10 185.32 126.45 184.50 127.00 C 183.68 127.55 183.00 128.68 183.00 129.50 C 183.00 130.32 182.32 131.22 181.50 131.50 C 180.68 131.78 180.00 132.68 180.00 133.50 C 180.00 134.32 178.88 135.68 177.50 136.50 C 176.12 137.32 175.00 138.68 175.00 139.50 C 175.00 140.32 174.55 141.00 174.00 141.00 C 173.45 141.00 173.22 141.45 173.50 142.00 C 173.78 142.55 173.10 143.45 172.00 144.00 C 170.90 144.55 170.22 145.45 170.50 146.00 C 170.78 146.55 170.55 147.00 170.00 147.00 C 169.45 147.00 168.32 148.35 167.50 150.00 C 166.68 151.65 164.65 154.35 163.00 156.00 C 161.35 157.65 159.10 160.12 158.00 161.50 C 156.90 162.88 156.00 164.45 156.00 165.00 C 156.00 165.55 155.32 166.90 154.50 168.00 C 153.68 169.10 152.10 170.90 151.00 172.00 C 149.90 173.10 148.78 174.68 148.50 175.50 C 148.22 176.32 147.55 177.00 147.00 177.00 C 146.45 177.00 146.00 177.68 146.00 178.50 C 146.00 179.32 145.32 180.45 144.50 181.00 C 143.68 181.55 143.22 182.00 143.50 182.00 C 143.78 182.00 142.88 183.12 141.50 184.50 C 140.12 185.88 139.00 187.45 139.00 188.00 C 139.00 188.55 138.55 189.00 138.00 189.00 C 137.45 189.00 137.00 189.68 137.00 190.50 C 137.00 191.32 136.55 192.00 136.00 192.00 C 135.45 192.00 133.65 194.25 132.00 197.00 C 130.35 199.75 128.55 202.00 128.00 202.00 C 127.45 202.00 127.22 202.45 127.50 203.00 C 127.78 203.55 127.55 204.22 127.00 204.50 C 126.45 204.78 124.42 203.65 122.50 202.00 C 120.58 200.35 116.53 196.53 113.50 193.50 C 110.47 190.47 100.12 179.90 90.50 170.00 C 80.88 160.10 73.00 152.00 73.00 152.00 L 73.00 152.00 Z" fill-rule="evenodd"/>
	<path fill="#00FFFF01" d="M 189.50 123.00 C 189.78 123.00 190.00 123.67 190.00 124.50 C 190.00 125.83 189.94 125.83 189.50 124.50 C 189.22 123.67 189.22 123.00 189.50 123.00 Z" fill-rule="evenodd"/>
	<path fill="#0000FF01" d="M 173.00 134.00 C 172.22 134.00 172.00 133.78 172.00 133.50 C 172.00 133.22 172.22 133.22 172.50 133.50 C 172.78 133.78 173.00 134.00 173.00 134.00 L 173.00 134.00 Z" fill-rule="evenodd"/>
	<path fill="#0000FF01" d="M 95.00 147.00 C 96.55 147.00 97.22 147.68 97.50 148.50 C 97.78 149.32 98.00 150.00 98.00 150.00 L 98.00 150.00 L 98.00 150.00 C 98.00 150.00 97.33 149.55 96.50 149.00 C 95.67 148.45 95.00 147.78 95.00 147.00 Z" fill-rule="evenodd"/>
	<path fill="#12FE0011" d="M 598.00 149.00 C 598.77 149.00 599.00 149.00 599.00 149.00 L 599.00 149.00 L 599.00 149.00 C 599.00 149.00 599.23 149.00 599.50 149.00 C 599.77 149.00 600.00 149.22 600.00 150.00 C 599.23 154.65 598.77 157.35 598.50 159.00 C 598.23 160.65 598.00 162.00 598.00 162.00 L 598.00 162.00 L 598.00 162.00 C 598.00 162.00 598.00 161.78 598.00 161.50 C 598.00 161.22 598.00 158.30 598.00 149.00 Z" fill-rule="evenodd"/>
	<path fill="#0000FF01" d="M 100.00 151.00 C 100.78 151.00 101.00 151.45 101.00 152.00 C 101.00 152.55 101.00 153.00 101.00 153.00 L 101.00 153.00 L 101.00 153.00 C 101.00 153.00 100.78 153.00 100.50 153.00 C 100.22 153.00 100.00 152.55 100.00 151.00 Z" fill-rule="evenodd"/>
	<path fill="#0000FF01" d="M 73.00 152.00 C 73.00 152.78 72.78 153.00 72.50 153.00 C 72.22 153.00 72.22 152.78 72.50 152.50 C 72.78 152.22 73.00 152.00 73.00 152.00 L 73.00 152.00 Z" fill-rule="evenodd"/>
	<path fill="#0046AA01" d="M 87.00 211.00 L 87.00 211.00 C 87.00 211.00 87.00 211.22 87.00 211.50 C 87.00 211.78 86.10 212.00 83.00 212.00 C 82.22 211.22 82.00 210.78 82.00 210.50 C 82.00 210.22 83.12 210.22 84.50 210.50 C 85.88 210.78 87.00 211.00 87.00 211.00 L 87.00 211.00 Z" fill-rule="evenodd"/>
	<path fill="#00FFFF01" d="M 112.50 210.00 C 112.78 210.00 113.00 210.22 113.00 210.50 C 113.00 210.78 112.78 210.78 112.50 210.50 C 112.22 210.22 112.22 210.00 112.50 210.00 Z" fill-rule="evenodd"/>
	<path fill="#0000FF01" d="M 102.00 211.00 L 102.00 211.00 C 102.00 211.00 102.00 211.22 102.00 212.00 C 101.22 212.00 101.00 212.00 101.00 212.00 L 101.00 212.00 C 101.00 211.22 101.22 211.00 101.50 211.00 C 101.78 211.00 102.00 211.00 102.00 211.00 L 102.00 211.00 Z" fill-rule="evenodd"/>
</svg>
