<?xml version="1.0" ?>
<svg xmlns="http://www.w3.org/2000/svg" version="1.1" width="1133" height="232">
	<g fill="none" stroke-linecap="butt">
		<path stroke="#000000" d="M 371.00 96.00 L 371.00 96.00 C 371.00 96.00 370.32 96.90 369.50 98.00 C 368.14 99.81 366.83 100.00 355.50 100.00 C 348.62 100.00 342.10 99.55 341.00 99.00 C 339.57 98.29 339.00 97.00 339.00 94.50 C 339.00 92.23 338.12 89.94 336.50 88.00 C 335.12 86.35 332.65 83.88 331.00 82.50 C 329.23 81.03 325.74 79.59 322.50 79.00 C 318.83 78.33 315.17 78.33 311.50 79.00 C 307.91 79.65 305.13 80.87 303.50 82.50 C 302.12 83.88 300.77 86.58 300.50 88.50 C 300.15 90.97 300.59 92.88 302.00 95.00 C 303.10 96.65 305.80 99.12 308.00 100.50 C 310.20 101.88 319.43 105.70 328.50 109.00 C 337.57 112.30 347.48 116.12 350.50 117.50 C 353.52 118.88 358.25 122.03 361.00 124.50 C 363.75 126.97 367.12 131.25 368.50 134.00 C 370.71 138.42 371.00 140.27 371.00 150.00 C 371.00 160.11 370.76 161.53 368.00 167.50 C 366.09 171.64 363.37 175.45 360.50 178.00 C 358.02 180.20 353.30 183.35 350.00 185.00 C 346.70 186.65 341.07 188.68 337.50 189.50 C 333.82 190.35 326.22 191.00 320.00 191.00 C 313.78 191.00 306.18 190.35 302.50 189.50 C 298.93 188.68 293.30 186.65 290.00 185.00 C 286.70 183.35 281.75 179.75 279.00 177.00 C 276.25 174.25 272.88 169.53 271.50 166.50 C 269.46 162.01 269.00 159.43 269.00 144.00 L 299.00 144.00 L 300.00 148.50 C 300.55 150.97 302.12 154.35 303.50 156.00 C 304.88 157.65 308.02 159.90 310.50 161.00 C 313.70 162.42 317.17 163.00 322.50 163.00 C 327.17 163.00 331.13 162.43 333.00 161.50 C 334.65 160.68 336.68 158.88 337.50 157.50 C 338.32 156.12 339.00 153.20 339.00 151.00 C 339.00 148.80 338.32 146.10 337.50 145.00 C 336.68 143.90 334.65 142.32 333.00 141.50 C 331.35 140.68 323.48 137.75 315.50 135.00 C 307.52 132.25 297.62 128.43 293.50 126.50 C 289.38 124.58 283.52 120.75 280.50 118.00 C 276.70 114.55 274.07 110.99 272.00 106.50 C 269.33 100.72 269.00 98.94 269.00 90.50 C 269.00 82.50 269.39 80.13 271.50 75.50 C 272.88 72.47 276.02 67.75 278.50 65.00 C 281.14 62.07 285.48 58.76 289.00 57.00 C 292.30 55.35 297.70 53.33 301.00 52.50 C 304.52 51.62 311.56 51.00 318.00 51.00 C 324.44 51.00 331.48 51.62 335.00 52.50 C 338.30 53.33 343.93 55.35 347.50 57.00 C 352.12 59.13 355.59 61.73 359.50 66.00 C 362.52 69.30 366.12 74.47 367.50 77.50 C 368.88 80.53 370.23 84.58 371.00 90.00" vector-effect="non-scaling-stroke"/>
		<path stroke="#000000" d="M 639.00 53.00 C 639.57 52.43 646.17 52.00 654.50 52.00 C 662.83 52.00 669.43 52.43 670.00 53.00 C 670.62 53.62 671.00 65.67 671.00 116.00 L 674.50 112.50 C 676.42 110.58 681.83 104.28 695.00 88.00 L 712.00 88.00 C 728.33 88.00 729.00 88.08 729.00 90.00 C 729.00 91.10 723.38 99.20 716.50 108.00 C 709.62 116.80 704.00 124.45 704.00 125.00 C 704.00 125.55 710.52 139.50 718.50 156.00 C 726.48 172.50 732.77 186.68 732.50 187.50 C 732.10 188.70 729.30 189.10 718.50 189.50 C 711.08 189.78 703.88 189.78 702.50 189.50 C 700.30 189.06 698.92 186.42 691.00 167.50 C 686.05 155.68 681.55 146.00 681.00 146.00 C 680.45 146.00 677.98 149.15 671.00 160.00 L 671.00 174.00 C 671.00 182.00 670.57 188.43 670.00 189.00 C 669.43 189.57 662.83 190.00 654.50 190.00 C 646.17 190.00 639.57 189.57 639.00 189.00 C 638.35 188.35 638.00 164.33 638.00 121.00 C 638.00 77.67 638.35 53.65 639.00 53.00" vector-effect="non-scaling-stroke"/>
		<path stroke="#000000" d="M 737.00 54.00 C 737.95 52.10 738.74 52.02 768.00 53.00 L 769.00 162.00 L 834.00 163.00 L 834.00 189.00 L 738.00 190.00 L 737.00 187.50 C 736.37 185.92 736.00 161.17 736.00 120.50 C 736.00 79.50 736.36 55.27 737.00 54.00" vector-effect="non-scaling-stroke"/>
		<path stroke="#000000" d="M 375.00 88.00 L 375.00 88.00 C 375.00 88.00 377.70 88.00 387.00 88.00 L 388.00 62.00 L 417.00 62.00 L 418.00 88.00 L 438.00 89.00 L 438.00 113.00 L 419.00 115.00 L 418.50 132.50 C 418.23 142.12 418.23 151.57 418.50 153.50 C 418.77 155.43 419.90 157.90 421.00 159.00 C 422.47 160.47 424.33 161.00 428.00 161.00 C 430.75 161.00 433.90 161.45 435.00 162.00 C 436.83 162.92 437.00 164.00 437.00 175.00 C 437.00 184.56 436.69 187.20 435.50 188.00 C 434.68 188.55 431.07 189.22 427.50 189.50 C 423.93 189.78 417.18 189.55 412.50 189.00 C 407.46 188.41 401.76 186.98 398.50 185.50 C 394.14 183.52 392.48 182.07 390.50 178.50 C 388.07 174.12 387.97 173.18 386.00 115.00 L 380.50 114.50 C 377.48 114.22 374.32 113.55 373.50 113.00 C 372.44 112.30 372.00 110.22 372.00 100.00" vector-effect="non-scaling-stroke"/>
		<path stroke="#2DFD34FC" d="M 19.00 146.00 L 19.00 146.00 C 19.00 146.00 19.45 145.78 20.00 145.50 C 20.55 145.22 27.75 136.00 51.00 105.00" vector-effect="non-scaling-stroke"/>
		<path stroke="#2DFD34FC" d="M 59.00 93.00 L 59.00 93.00 C 59.00 93.00 60.35 91.65 62.00 90.00 C 63.65 88.35 65.90 85.88 69.00 82.00 L 97.50 110.00 C 113.18 125.40 126.22 138.00 126.50 138.00 C 126.78 138.00 127.45 137.10 129.00 134.00" vector-effect="non-scaling-stroke"/>
		<path stroke="#2DFD34FC" d="M 139.00 125.00 L 139.00 125.00 C 139.00 125.00 139.68 124.55 140.50 124.00 C 141.32 123.45 147.62 117.60 167.00 99.00" vector-effect="non-scaling-stroke"/>
		<path stroke="#000000" d="M 481.00 87.00 C 485.00 86.33 489.67 86.33 495.00 87.00 C 499.40 87.55 505.25 88.90 508.00 90.00 C 510.75 91.10 515.25 93.58 518.00 95.50 C 520.75 97.42 524.35 100.80 526.00 103.00 C 527.65 105.20 530.12 109.25 531.50 112.00 C 532.88 114.75 534.67 119.70 535.50 123.00 C 536.33 126.30 537.00 133.28 537.00 138.50 C 537.00 144.83 536.33 150.50 535.00 155.50 C 533.90 159.62 531.88 165.25 530.50 168.00 C 529.12 170.75 525.75 175.25 523.00 178.00 C 520.25 180.75 515.30 184.35 512.00 186.00 C 508.70 187.65 503.98 189.45 501.50 190.00 C 499.02 190.55 492.73 191.00 487.50 191.00 C 480.83 191.00 476.06 190.40 471.50 189.00 C 467.93 187.90 462.52 185.20 459.50 183.00 C 456.48 180.80 451.98 176.30 449.50 173.00 C 446.50 169.00 444.17 164.33 442.50 159.00 C 440.44 152.41 440.00 148.97 440.00 139.50 C 440.00 133.18 440.45 125.75 441.00 123.00 C 441.55 120.25 443.12 115.53 444.50 112.50 C 445.88 109.47 449.25 104.53 452.00 101.50 C 454.75 98.47 459.02 94.88 461.50 93.50 C 463.98 92.12 468.02 90.33 470.50 89.50 C 472.98 88.67 477.70 87.55 481.00 87.00" vector-effect="non-scaling-stroke"/>
		<path stroke="#000000" d="M 583.50 86.50 C 584.88 86.22 589.60 86.45 594.00 87.00 C 598.40 87.55 603.35 88.45 605.00 89.00 C 606.65 89.55 610.25 91.12 613.00 92.50 C 615.75 93.88 620.48 97.25 623.50 100.00 C 627.01 103.19 629.90 106.99 631.50 110.50 C 632.88 113.53 634.23 117.80 634.50 120.00 C 634.77 122.20 634.55 124.22 634.00 124.50 C 633.45 124.78 627.83 125.90 621.50 127.00 C 615.17 128.10 608.65 129.00 607.00 129.00 C 604.73 129.00 603.76 128.39 603.00 126.50 C 602.45 125.12 601.55 122.88 601.00 121.50 C 600.45 120.12 598.88 118.33 597.50 117.50 C 596.12 116.67 593.42 115.55 591.50 115.00 C 589.17 114.33 586.50 114.33 583.50 115.00 C 580.10 115.75 578.39 116.86 576.50 119.50 C 575.12 121.42 573.55 125.03 573.00 127.50 C 572.45 129.97 572.23 136.50 572.50 142.00 C 572.91 150.21 573.45 152.81 575.50 156.50 C 577.17 159.50 579.00 161.33 581.00 162.00 C 582.65 162.55 584.90 163.22 586.00 163.50 C 587.10 163.78 589.58 163.55 591.50 163.00 C 593.42 162.45 596.12 161.10 597.50 160.00 C 598.88 158.90 600.90 156.43 602.00 154.50 C 603.20 152.39 604.99 150.80 606.50 150.50 C 607.88 150.22 614.40 150.90 621.00 152.00 C 627.60 153.10 633.45 154.45 634.00 155.00 C 634.55 155.55 634.77 157.12 634.50 158.50 C 634.23 159.88 632.65 163.93 631.00 167.50 C 628.93 171.99 626.30 175.55 622.50 179.00 C 619.48 181.75 614.52 185.12 611.50 186.50 C 608.48 187.88 603.98 189.45 601.50 190.00 C 599.02 190.55 592.73 191.00 587.50 191.00 C 580.67 191.00 576.32 190.44 572.00 189.00 C 568.70 187.90 563.98 185.88 561.50 184.50 C 559.02 183.12 554.75 179.53 552.00 176.50 C 549.25 173.47 545.88 168.53 544.50 165.50 C 543.12 162.47 541.33 157.53 540.50 154.50 C 539.61 151.24 539.00 144.72 539.00 138.50 C 539.00 132.28 539.61 125.76 540.50 122.50 C 541.33 119.47 543.35 114.08 545.00 110.50 C 547.00 106.17 549.67 102.50 553.00 99.50 C 555.75 97.03 560.70 93.65 564.00 92.00 C 567.30 90.35 572.48 88.55 575.50 88.00 C 578.52 87.45 582.12 86.78 583.50 86.50" vector-effect="non-scaling-stroke"/>
		<path stroke="#000000" d="M 875.00 87.00 C 877.20 86.45 880.80 86.00 883.00 86.00 C 885.20 86.00 889.70 86.45 893.00 87.00 C 896.30 87.55 901.48 89.12 904.50 90.50 C 907.76 91.98 912.44 95.44 916.00 99.00 C 919.33 102.33 923.33 107.67 925.00 111.00 C 926.65 114.30 928.90 120.38 930.00 124.50 C 931.16 128.83 932.00 135.17 932.00 147.00 L 869.00 148.00 L 869.00 150.50 C 869.00 151.88 869.90 154.35 871.00 156.00 C 872.10 157.65 874.80 159.90 877.00 161.00 C 880.00 162.50 883.00 163.00 889.00 163.00 C 894.67 163.00 898.46 162.42 902.00 161.00 C 904.75 159.90 907.45 158.32 908.00 157.50 C 908.55 156.68 909.90 156.00 911.00 156.00 C 912.25 156.00 915.62 159.00 920.00 164.00 C 923.85 168.40 927.00 172.90 927.00 174.00 C 927.00 175.10 925.42 177.35 923.50 179.00 C 921.58 180.65 917.98 183.12 915.50 184.50 C 913.02 185.88 908.08 187.90 904.50 189.00 C 899.75 190.46 895.17 191.00 887.50 191.00 C 881.28 191.00 874.76 190.39 871.50 189.50 C 868.48 188.68 863.75 186.88 861.00 185.50 C 858.25 184.12 853.52 180.53 850.50 177.50 C 847.48 174.47 843.65 169.30 842.00 166.00 C 840.35 162.70 838.33 157.53 837.50 154.50 C 836.63 151.32 836.00 144.78 836.00 139.00 C 836.00 133.50 836.67 125.85 837.50 122.00 C 838.42 117.69 840.35 112.88 842.50 109.50 C 844.42 106.47 847.12 102.65 848.50 101.00 C 849.88 99.35 853.48 96.42 856.50 94.50 C 859.52 92.58 864.02 90.33 866.50 89.50 C 868.98 88.67 872.80 87.55 875.00 87.00" vector-effect="non-scaling-stroke"/>
		<path stroke="#000000" d="M 988.50 87.00 C 991.50 86.33 995.00 86.33 999.00 87.00 C 1002.30 87.55 1007.48 89.12 1010.50 90.50 C 1013.54 91.88 1017.56 94.79 1019.50 97.00 C 1021.42 99.20 1023.90 103.03 1025.00 105.50 C 1026.10 107.97 1027.45 112.92 1028.00 116.50 C 1028.55 120.08 1029.00 136.95 1029.00 154.00 C 1029.00 172.33 1028.59 186.02 1027.00 190.00 L 1013.00 190.00 C 1005.30 190.00 998.33 189.78 997.50 189.50 C 996.21 189.07 996.00 184.61 996.00 157.50 C 996.00 128.00 995.87 125.75 994.00 122.00 C 992.90 119.80 990.88 117.33 989.50 116.50 C 988.12 115.67 984.98 115.00 982.50 115.00 C 980.02 115.00 976.88 115.67 975.50 116.50 C 974.12 117.33 972.10 119.35 971.00 121.00 C 969.10 123.84 969.00 125.67 969.00 156.00 C 969.00 176.00 968.62 188.38 968.00 189.00 C 967.43 189.57 960.83 190.00 952.50 190.00 C 944.17 190.00 937.57 189.57 937.00 189.00 C 936.36 188.36 936.00 170.33 936.00 139.00 C 936.00 107.67 936.36 89.64 937.00 89.00 C 937.57 88.43 944.17 88.00 952.50 88.00 C 960.83 88.00 967.43 88.43 968.00 89.00 C 968.55 89.55 969.00 91.80 969.00 98.00 L 973.50 94.00 C 975.98 91.80 979.35 89.55 981.00 89.00 C 982.65 88.45 986.02 87.55 988.50 87.00" vector-effect="non-scaling-stroke"/>
		<path stroke="#000000" d="M 1067.50 87.00 C 1071.83 86.33 1077.00 86.33 1083.00 87.00 C 1087.95 87.55 1093.80 88.67 1096.00 89.50 C 1098.20 90.33 1101.35 91.67 1103.00 92.50 C 1104.65 93.33 1107.80 95.58 1110.00 97.50 C 1112.20 99.42 1115.35 103.70 1117.00 107.00 C 1119.00 111.00 1120.00 114.50 1120.00 117.50 C 1120.00 120.61 1119.54 122.15 1118.50 122.50 C 1117.67 122.78 1111.15 123.00 1091.00 123.00 L 1089.50 119.00 C 1088.39 116.05 1087.08 114.61 1084.50 113.50 C 1082.58 112.67 1078.97 112.00 1076.50 112.00 C 1074.03 112.00 1070.42 112.67 1068.50 113.50 C 1066.17 114.50 1064.83 115.83 1064.50 117.50 C 1064.17 119.17 1064.67 120.67 1066.00 122.00 C 1067.11 123.11 1071.56 124.89 1076.00 126.00 C 1080.40 127.10 1086.92 128.68 1090.50 129.50 C 1094.08 130.32 1100.15 132.35 1104.00 134.00 C 1109.10 136.19 1112.22 138.36 1115.50 142.00 C 1118.15 144.95 1120.41 148.64 1121.00 151.00 C 1121.55 153.20 1121.78 158.15 1121.50 162.00 C 1121.21 166.08 1120.17 170.67 1119.00 173.00 C 1117.90 175.20 1115.20 178.57 1113.00 180.50 C 1110.80 182.43 1107.20 184.90 1105.00 186.00 C 1102.80 187.10 1098.53 188.68 1095.50 189.50 C 1091.98 190.46 1085.50 191.00 1077.50 191.00 C 1069.50 191.00 1063.02 190.46 1059.50 189.50 C 1056.47 188.68 1051.97 187.10 1049.50 186.00 C 1047.03 184.90 1042.97 182.20 1040.50 180.00 C 1038.03 177.80 1035.10 174.20 1034.00 172.00 C 1032.73 169.45 1032.00 166.00 1032.00 162.50 C 1032.00 158.50 1032.41 156.86 1033.50 156.50 C 1034.33 156.22 1040.85 156.00 1048.00 156.00 C 1055.33 156.00 1061.44 156.44 1062.00 157.00 C 1062.55 157.55 1063.45 159.12 1064.00 160.50 C 1064.55 161.88 1066.35 163.90 1068.00 165.00 C 1070.23 166.49 1072.67 167.00 1077.50 167.00 C 1082.50 167.00 1084.58 166.54 1086.50 165.00 C 1087.97 163.83 1089.00 161.97 1089.00 160.50 C 1089.00 158.90 1088.10 157.46 1086.50 156.50 C 1085.12 155.68 1079.95 154.10 1075.00 153.00 C 1070.05 151.90 1063.75 150.32 1061.00 149.50 C 1058.25 148.68 1053.75 146.88 1051.00 145.50 C 1048.25 144.12 1043.75 140.97 1041.00 138.50 C 1037.61 135.45 1035.52 132.55 1034.50 129.50 C 1033.46 126.39 1033.15 122.69 1033.50 117.50 C 1033.79 113.19 1034.85 108.09 1036.00 105.50 C 1037.10 103.03 1039.80 99.42 1042.00 97.50 C 1044.20 95.58 1047.80 93.10 1050.00 92.00 C 1052.20 90.90 1055.58 89.55 1057.50 89.00 C 1059.42 88.45 1063.92 87.55 1067.50 87.00" vector-effect="non-scaling-stroke"/>
		<path stroke="#A0A0A0" d="M 375.00 88.00 L 375.00 88.00 C 375.00 88.00 374.55 88.45 374.00 89.00 C 373.45 89.55 372.77 92.25 372.00 100.00" vector-effect="non-scaling-stroke"/>
		<path stroke="#A0A0A0" d="M 372.00 100.00 L 372.00 100.00 C 372.00 100.00 372.00 99.10 372.00 98.00 C 372.00 96.90 371.77 96.00 371.00 96.00" vector-effect="non-scaling-stroke"/>
		<path stroke="#A0A0A0" d="M 371.00 96.00 L 371.00 96.00 C 371.00 96.00 371.00 95.78 371.00 95.50 C 371.00 95.22 371.00 93.88 371.00 90.00" vector-effect="non-scaling-stroke"/>
		<path stroke="#A0A0A0" d="M 371.00 90.00 L 371.00 90.00 C 371.00 90.00 371.45 89.55 372.00 89.00 C 372.55 88.45 373.45 88.00 375.00 88.00" vector-effect="non-scaling-stroke"/>
		<path stroke="#C0EBD741" d="M 170.00 96.00 L 170.00 96.00 C 170.00 96.00 169.55 96.67 169.00 97.50 C 168.45 98.33 167.78 99.00 167.00 99.00" vector-effect="non-scaling-stroke"/>
		<path stroke="#C0EBD741" d="M 167.00 99.00 L 167.00 99.00 C 167.00 99.00 167.00 98.33 167.00 97.50 C 167.00 96.67 167.22 96.00 168.00 96.00" vector-effect="non-scaling-stroke"/>
		<path stroke="#FEFEFEFD" d="M 484.50 114.50 C 485.88 114.22 489.02 114.45 491.50 115.00 C 494.68 115.71 496.88 117.03 499.00 119.50 C 500.65 121.42 502.45 124.80 503.00 127.00 C 503.55 129.20 504.00 134.60 504.00 139.00 C 504.00 143.40 503.55 148.80 503.00 151.00 C 502.45 153.20 500.65 156.57 499.00 158.50 C 497.35 160.43 494.43 162.45 492.50 163.00 C 490.17 163.67 487.67 163.67 485.00 163.00 C 482.80 162.45 480.10 161.10 479.00 160.00 C 477.90 158.90 476.10 156.20 475.00 154.00 C 473.38 150.76 473.00 148.00 473.00 139.50 C 473.00 132.83 473.55 127.36 474.50 124.50 C 475.32 122.03 477.35 118.88 479.00 117.50 C 480.65 116.12 483.12 114.78 484.50 114.50" vector-effect="non-scaling-stroke"/>
		<path stroke="#FFFFFF" d="M 879.50 115.00 C 880.88 114.45 883.80 114.22 886.00 114.50 C 888.20 114.78 891.35 116.12 893.00 117.50 C 894.65 118.88 896.67 121.58 897.50 123.50 C 898.33 125.42 898.77 127.45 898.50 128.00 C 898.20 128.60 892.33 129.00 884.00 129.00 C 875.67 129.00 869.80 128.60 869.50 128.00 C 869.23 127.45 869.90 124.97 871.00 122.50 C 872.10 120.03 873.90 117.55 875.00 117.00 C 876.10 116.45 878.12 115.55 879.50 115.00" vector-effect="non-scaling-stroke"/>
		<path stroke="#A3DAC81C" d="M 367.00 118.00 L 367.00 118.00 C 367.00 118.00 367.23 118.00 367.50 118.00 C 367.77 118.00 368.23 118.45 369.00 120.00" vector-effect="non-scaling-stroke"/>
		<path stroke="#00B8FDFB" d="M 185.00 124.00 L 185.00 124.00 C 185.00 124.00 184.78 124.00 184.50 124.00 C 184.22 124.00 184.45 123.55 186.00 122.00" vector-effect="non-scaling-stroke"/>
		<path stroke="#DFF2E162" d="M 138.00 123.00 L 138.00 123.00 C 138.00 123.00 138.22 123.00 138.50 123.00 C 138.78 123.00 139.00 123.45 139.00 125.00" vector-effect="non-scaling-stroke"/>
		<path stroke="#DFF2E162" d="M 139.00 125.00 L 139.00 125.00 C 139.00 125.00 139.00 125.22 139.00 125.50 C 139.00 125.78 136.97 127.80 130.00 134.00" vector-effect="non-scaling-stroke"/>
		<path stroke="#C0EBD741" d="M 183.00 126.00 L 183.00 126.00 C 183.00 126.00 183.00 125.78 183.00 125.50 C 183.00 125.22 182.55 125.22 181.00 126.00" vector-effect="non-scaling-stroke"/>
		<path stroke="#00B8FDFB" d="M 183.00 124.00 L 183.00 124.00 C 183.00 124.00 183.22 124.00 183.50 124.00 C 183.78 124.00 184.00 124.22 184.00 125.00" vector-effect="non-scaling-stroke"/>
		<path stroke="#00B8FDFB" d="M 184.00 125.00 L 184.00 125.00 C 184.00 125.00 183.78 125.00 183.50 125.00 C 183.22 125.00 183.00 124.78 183.00 124.00" vector-effect="non-scaling-stroke"/>
		<path stroke="#AEE0CE2A" d="M 3.00 168.00 L 3.00 168.00 C 3.00 168.00 2.77 168.45 2.50 169.00 C 2.23 169.55 2.23 170.00 2.50 170.00 C 2.77 170.00 3.23 169.78 4.00 169.00" vector-effect="non-scaling-stroke"/>
		<path stroke="#C0EBD741" d="M 31.00 184.00 L 31.00 184.00 C 31.00 184.00 30.77 184.00 30.50 184.00 C 30.23 184.00 30.23 183.78 31.00 183.00" vector-effect="non-scaling-stroke"/>
	</g>
	<path fill="#FECF64F9" d="M 168.00 96.00 C 167.22 96.00 167.00 96.67 167.00 97.50 C 167.00 98.33 167.00 99.00 167.00 99.00 L 167.00 99.00 C 147.62 117.60 141.32 123.45 140.50 124.00 C 139.68 124.55 139.00 125.00 139.00 125.00 L 139.00 125.00 C 139.00 123.45 138.78 123.00 138.50 123.00 C 138.22 123.00 138.00 123.00 138.00 123.00 L 138.00 123.00 C 138.00 28.45 138.00 0.78 138.00 0.50 C 138.00 0.22 144.75 0.00 153.00 0.00 L 168.00 0.00 C 168.00 74.40 168.00 96.00 168.00 96.00 L 168.00 96.00 Z" fill-rule="evenodd"/>
	<path fill="#FECE5FFE" d="M 129.00 134.00 C 127.45 137.10 126.78 138.00 126.50 138.00 C 126.22 138.00 113.18 125.40 97.50 110.00 L 69.00 82.00 C 65.90 85.88 63.65 88.35 62.00 90.00 C 60.35 91.65 59.00 93.00 59.00 93.00 L 59.00 93.00 C 59.00 52.67 59.39 42.61 60.00 42.00 C 60.57 41.43 67.00 41.00 75.00 41.00 C 86.56 41.00 89.09 41.26 89.50 42.50 C 89.78 43.33 90.00 57.05 90.00 73.00 L 90.00 102.00 L 99.00 110.00 L 99.00 22.00 L 128.00 23.00 C 128.78 109.03 129.00 134.00 129.00 134.00 L 129.00 134.00 Z" fill-rule="evenodd"/>
	<path fill="#FEFEFEFD" d="M 320.00 43.50 C 327.70 43.77 336.48 44.67 339.50 45.50 C 342.52 46.33 348.15 48.58 352.00 50.50 C 356.33 52.67 361.29 56.29 365.00 60.00 C 369.33 64.33 371.83 67.94 374.00 73.00 C 375.65 76.85 377.45 80.00 378.00 80.00 C 378.57 80.00 379.21 75.50 379.50 69.50 C 379.98 59.47 380.13 58.87 383.00 56.00 L 386.00 53.00 C 415.61 53.00 419.41 53.31 421.00 54.50 C 422.10 55.33 423.68 57.35 424.50 59.00 C 425.50 61.00 426.00 65.00 426.00 71.00 L 426.00 80.00 C 440.17 80.94 441.33 81.33 444.00 84.00 C 446.19 86.19 447.00 87.94 447.00 90.50 C 447.00 92.42 447.23 94.00 447.50 94.00 C 447.77 94.00 449.80 92.42 452.00 90.50 C 454.20 88.58 458.48 85.88 461.50 84.50 C 464.52 83.12 469.70 81.33 473.00 80.50 C 476.30 79.67 483.27 79.00 488.50 79.00 C 493.73 79.00 500.70 79.67 504.00 80.50 C 507.30 81.33 512.02 82.90 514.50 84.00 C 516.98 85.10 521.48 88.25 524.50 91.00 C 527.52 93.75 531.58 98.25 533.50 101.00 L 537.00 106.00 C 540.10 102.12 543.92 98.08 547.50 94.50 C 551.88 90.12 556.12 87.02 560.50 85.00 C 564.08 83.35 569.48 81.33 572.50 80.50 C 575.68 79.63 582.22 79.00 588.00 79.00 C 593.78 79.00 600.32 79.63 603.50 80.50 C 606.52 81.33 611.48 83.12 614.50 84.50 C 617.52 85.88 622.02 88.58 624.50 90.50 C 626.98 92.42 629.23 94.00 629.50 94.00 C 629.77 94.00 630.00 85.00 630.00 74.00 C 630.00 58.44 630.33 53.22 631.50 50.50 C 632.50 48.17 634.17 46.50 636.50 45.50 C 639.31 44.30 643.16 44.10 656.00 44.50 C 668.06 44.88 672.49 45.37 674.00 46.50 C 675.10 47.33 676.67 49.58 677.50 51.50 C 678.66 54.21 679.00 59.39 679.00 74.50 L 679.00 94.00 L 692.00 81.00 L 729.00 80.00 L 729.00 51.00 L 735.00 45.00 C 764.91 44.09 768.56 44.28 771.00 45.50 C 772.65 46.33 774.67 48.35 775.50 50.00 C 776.77 52.55 777.00 60.61 777.00 103.50 L 777.00 154.00 L 829.00 154.00 C 828.23 136.95 828.45 128.85 829.00 125.00 C 829.55 121.15 831.35 115.08 833.00 111.50 C 834.65 107.92 837.80 102.53 840.00 99.50 C 842.20 96.47 846.48 92.20 849.50 90.00 C 852.52 87.80 858.15 84.65 862.00 83.00 C 866.67 81.00 872.00 79.67 878.00 79.00 C 885.12 78.21 888.67 78.31 895.00 79.50 C 899.40 80.33 905.48 82.12 908.50 83.50 C 911.99 85.09 916.56 88.56 921.00 93.00 L 928.00 100.00 C 928.00 92.25 928.67 88.42 929.50 86.50 C 930.50 84.17 932.17 82.50 934.50 81.50 C 937.31 80.30 941.16 80.10 954.00 80.50 C 966.39 80.89 970.34 81.34 971.50 82.50 C 972.83 83.83 973.50 83.78 977.50 82.00 C 980.54 80.65 985.07 79.84 991.50 79.50 C 998.21 79.15 1002.62 79.44 1006.50 80.50 C 1009.52 81.33 1014.48 83.58 1017.50 85.50 C 1020.52 87.42 1024.58 90.80 1026.50 93.00 C 1028.42 95.20 1030.00 97.45 1030.00 98.00 C 1030.00 98.55 1032.70 96.30 1036.00 93.00 C 1039.56 89.44 1044.24 85.98 1047.50 84.50 C 1050.53 83.12 1055.92 81.33 1059.50 80.50 C 1063.08 79.67 1070.72 79.00 1076.50 79.00 C 1083.83 79.00 1089.26 79.60 1094.50 81.00 C 1098.62 82.10 1104.25 84.12 1107.00 85.50 C 1109.75 86.88 1114.25 90.47 1117.00 93.50 C 1119.75 96.53 1123.12 101.47 1124.50 104.50 C 1126.08 107.98 1127.18 112.57 1127.50 117.00 C 1127.96 123.47 1127.81 124.19 1125.50 126.50 C 1123.83 128.17 1121.50 129.17 1118.50 129.50 L 1114.00 130.00 C 1123.17 138.33 1125.67 141.67 1127.00 145.00 C 1128.53 148.83 1129.00 152.33 1129.00 160.00 C 1129.00 167.83 1128.57 170.97 1127.00 174.50 C 1125.90 176.97 1123.65 180.80 1122.00 183.00 C 1120.35 185.20 1116.30 188.57 1113.00 190.50 C 1109.70 192.43 1104.30 194.90 1101.00 196.00 C 1096.67 197.44 1091.25 198.14 1081.50 198.50 C 1074.08 198.78 1064.85 198.55 1061.00 198.00 C 1056.33 197.33 1051.33 195.67 1046.00 193.00 C 1041.60 190.80 1037.55 188.78 1037.00 188.50 C 1036.45 188.22 1035.55 189.35 1035.00 191.00 C 1034.45 192.65 1032.65 194.90 1031.00 196.00 C 1028.33 197.78 1026.33 198.00 1013.00 198.00 C 1001.89 198.00 997.09 197.61 994.50 196.50 C 992.52 195.65 990.35 193.70 989.50 192.00 C 988.26 189.52 988.00 183.50 988.00 157.50 C 988.00 127.33 987.92 125.92 986.00 124.00 C 984.90 122.90 983.33 122.00 982.50 122.00 C 981.67 122.00 980.33 122.67 979.50 123.50 C 978.27 124.73 977.82 130.96 977.00 158.00 L 976.00 191.00 L 970.00 197.00 C 941.16 197.90 937.31 197.70 934.50 196.50 C 932.17 195.50 930.50 193.83 929.50 191.50 C 928.67 189.57 927.77 187.78 927.50 187.50 C 927.23 187.22 924.75 188.35 922.00 190.00 C 919.25 191.65 913.62 194.12 909.50 195.50 C 903.68 197.44 899.20 198.11 889.50 198.50 C 880.30 198.87 875.41 198.60 871.00 197.50 C 867.70 196.68 862.30 194.65 859.00 193.00 C 855.70 191.35 850.98 188.43 848.50 186.50 C 846.02 184.57 843.77 183.00 843.50 183.00 C 843.23 183.00 843.00 184.80 843.00 187.00 C 843.00 189.50 842.25 191.94 841.00 193.50 C 839.90 194.88 837.65 196.45 836.00 197.00 C 834.06 197.65 809.20 197.82 765.50 197.50 C 699.89 197.01 697.93 196.94 695.50 195.00 C 693.83 193.67 690.83 187.67 686.50 177.00 L 680.00 161.00 C 678.02 190.76 677.95 191.05 675.00 194.00 L 672.00 197.00 C 643.16 197.90 639.31 197.70 636.50 196.50 C 634.17 195.50 632.50 193.83 631.50 191.50 C 630.67 189.57 630.00 187.10 630.00 186.00 C 630.00 184.90 629.77 184.00 629.50 184.00 C 629.23 184.00 626.75 185.80 624.00 188.00 C 621.25 190.20 615.62 193.35 611.50 195.00 C 604.98 197.61 602.36 198.07 591.50 198.50 C 582.30 198.87 577.41 198.60 573.00 197.50 C 569.70 196.68 564.08 194.65 560.50 193.00 C 556.66 191.23 551.95 187.95 549.00 185.00 C 546.25 182.25 542.65 177.97 541.00 175.50 L 538.00 171.00 C 533.35 177.97 530.42 181.57 528.50 183.50 C 526.58 185.43 522.30 188.80 519.00 191.00 C 515.00 193.67 510.33 195.67 505.00 197.00 C 499.96 198.26 493.67 199.00 488.00 199.00 C 483.05 199.00 476.30 198.32 473.00 197.50 C 469.70 196.68 464.30 194.65 461.00 193.00 C 457.70 191.35 452.75 187.97 450.00 185.50 L 445.00 181.00 C 444.23 187.97 443.32 191.12 442.50 192.50 C 441.68 193.88 439.65 195.45 438.00 196.00 C 436.24 196.59 428.62 196.79 419.50 196.50 C 409.29 196.17 402.64 195.49 400.00 194.50 C 397.80 193.68 394.20 192.10 392.00 191.00 C 389.80 189.90 386.88 187.43 385.50 185.50 C 384.12 183.57 382.32 180.20 381.50 178.00 C 380.68 175.80 379.77 171.53 379.50 168.50 L 379.00 163.00 C 375.90 169.97 373.65 174.03 372.00 176.50 C 370.35 178.97 366.98 182.80 364.50 185.00 C 362.02 187.20 356.62 190.57 352.50 192.50 C 348.38 194.43 341.85 196.68 338.00 197.50 C 333.98 198.36 325.89 199.00 319.00 199.00 C 311.67 199.00 304.67 198.42 301.00 197.50 C 297.70 196.68 291.62 194.43 287.50 192.50 C 282.29 190.07 278.17 187.17 274.00 183.00 C 270.70 179.70 266.88 174.75 265.50 172.00 C 264.12 169.25 262.32 164.75 261.50 162.00 C 260.68 159.25 260.00 153.62 260.00 149.50 C 260.00 142.26 260.12 141.88 263.50 138.50 L 267.00 135.00 L 292.00 135.00 C 283.48 130.35 278.07 126.30 274.50 123.00 C 269.76 118.63 267.19 115.24 265.00 110.50 C 263.35 106.92 261.55 100.85 261.00 97.00 C 260.33 92.33 260.33 87.83 261.00 83.50 C 261.55 79.92 263.35 74.08 265.00 70.50 C 267.19 65.76 269.76 62.37 274.50 58.00 C 278.28 54.51 283.72 50.74 287.50 49.00 C 291.07 47.35 296.70 45.33 300.00 44.50 C 304.50 43.38 309.50 43.12 320.00 43.50 Z M 371.00 96.00 C 371.77 96.00 372.00 96.90 372.00 98.00 C 372.00 99.10 372.00 100.00 372.00 100.00 L 372.00 100.00 C 372.00 110.22 372.44 112.30 373.50 113.00 C 374.32 113.55 377.48 114.22 380.50 114.50 L 386.00 115.00 C 387.97 173.18 388.07 174.12 390.50 178.50 C 392.48 182.07 394.14 183.52 398.50 185.50 C 401.76 186.98 407.46 188.41 412.50 189.00 C 417.18 189.55 423.93 189.78 427.50 189.50 C 431.07 189.22 434.68 188.55 435.50 188.00 C 436.69 187.20 437.00 184.56 437.00 175.00 C 437.00 164.00 436.83 162.92 435.00 162.00 C 433.90 161.45 430.75 161.00 428.00 161.00 C 424.33 161.00 422.47 160.47 421.00 159.00 C 419.90 157.90 418.77 155.43 418.50 153.50 C 418.23 151.57 418.23 142.12 418.50 132.50 L 419.00 115.00 L 438.00 113.00 L 438.00 89.00 L 418.00 88.00 L 417.00 62.00 L 388.00 62.00 L 387.00 88.00 C 377.70 88.00 375.00 88.00 375.00 88.00 L 375.00 88.00 C 373.45 88.00 372.55 88.45 372.00 89.00 C 371.45 89.55 371.00 90.00 371.00 90.00 L 371.00 90.00 C 370.23 84.58 368.88 80.53 367.50 77.50 C 366.12 74.47 362.52 69.30 359.50 66.00 C 355.59 61.73 352.12 59.13 347.50 57.00 C 343.93 55.35 338.30 53.33 335.00 52.50 C 331.48 51.62 324.44 51.00 318.00 51.00 C 311.56 51.00 304.52 51.62 301.00 52.50 C 297.70 53.33 292.30 55.35 289.00 57.00 C 285.48 58.76 281.14 62.07 278.50 65.00 C 276.02 67.75 272.88 72.47 271.50 75.50 C 269.39 80.13 269.00 82.50 269.00 90.50 C 269.00 98.94 269.33 100.72 272.00 106.50 C 274.07 110.99 276.70 114.55 280.50 118.00 C 283.52 120.75 289.38 124.58 293.50 126.50 C 297.62 128.43 307.52 132.25 315.50 135.00 C 323.48 137.75 331.35 140.68 333.00 141.50 C 334.65 142.32 336.68 143.90 337.50 145.00 C 338.32 146.10 339.00 148.80 339.00 151.00 C 339.00 153.20 338.32 156.12 337.50 157.50 C 336.68 158.88 334.65 160.68 333.00 161.50 C 331.13 162.43 327.17 163.00 322.50 163.00 C 317.17 163.00 313.70 162.42 310.50 161.00 C 308.02 159.90 304.88 157.65 303.50 156.00 C 302.12 154.35 300.55 150.97 300.00 148.50 L 299.00 144.00 L 269.00 144.00 C 269.00 159.43 269.46 162.01 271.50 166.50 C 272.88 169.53 276.25 174.25 279.00 177.00 C 281.75 179.75 286.70 183.35 290.00 185.00 C 293.30 186.65 298.93 188.68 302.50 189.50 C 306.18 190.35 313.78 191.00 320.00 191.00 C 326.22 191.00 333.82 190.35 337.50 189.50 C 341.07 188.68 346.70 186.65 350.00 185.00 C 353.30 183.35 358.02 180.20 360.50 178.00 C 363.37 175.45 366.09 171.64 368.00 167.50 C 370.76 161.53 371.00 160.11 371.00 150.00 C 371.00 140.27 370.71 138.42 368.50 134.00 C 367.12 131.25 363.75 126.97 361.00 124.50 C 358.25 122.03 353.52 118.88 350.50 117.50 C 347.48 116.12 337.57 112.30 328.50 109.00 C 319.43 105.70 310.20 101.88 308.00 100.50 C 305.80 99.12 303.10 96.65 302.00 95.00 C 300.59 92.88 300.15 90.97 300.50 88.50 C 300.77 86.58 302.12 83.88 303.50 82.50 C 305.13 80.87 307.91 79.65 311.50 79.00 C 315.17 78.33 318.83 78.33 322.50 79.00 C 325.74 79.59 329.23 81.03 331.00 82.50 C 332.65 83.88 335.12 86.35 336.50 88.00 C 338.12 89.94 339.00 92.23 339.00 94.50 C 339.00 97.00 339.57 98.29 341.00 99.00 C 342.10 99.55 348.62 100.00 355.50 100.00 C 366.83 100.00 368.14 99.81 369.50 98.00 C 370.32 96.90 371.00 96.00 371.00 96.00 L 371.00 96.00 Z M 639.00 53.00 C 638.35 53.65 638.00 77.67 638.00 121.00 C 638.00 164.33 638.35 188.35 639.00 189.00 C 639.57 189.57 646.17 190.00 654.50 190.00 C 662.83 190.00 669.43 189.57 670.00 189.00 C 670.57 188.43 671.00 182.00 671.00 174.00 L 671.00 160.00 C 677.98 149.15 680.45 146.00 681.00 146.00 C 681.55 146.00 686.05 155.68 691.00 167.50 C 698.92 186.42 700.30 189.06 702.50 189.50 C 703.88 189.78 711.08 189.78 718.50 189.50 C 729.30 189.10 732.10 188.70 732.50 187.50 C 732.77 186.68 726.48 172.50 718.50 156.00 C 710.52 139.50 704.00 125.55 704.00 125.00 C 704.00 124.45 709.62 116.80 716.50 108.00 C 723.38 99.20 729.00 91.10 729.00 90.00 C 729.00 88.08 728.33 88.00 712.00 88.00 L 695.00 88.00 C 681.83 104.28 676.42 110.58 674.50 112.50 L 671.00 116.00 C 671.00 65.67 670.62 53.62 670.00 53.00 C 669.43 52.43 662.83 52.00 654.50 52.00 C 646.17 52.00 639.57 52.43 639.00 53.00 Z M 737.00 54.00 C 736.36 55.27 736.00 79.50 736.00 120.50 C 736.00 161.17 736.37 185.92 737.00 187.50 L 738.00 190.00 L 834.00 189.00 L 834.00 163.00 L 769.00 162.00 L 768.00 53.00 C 738.74 52.02 737.95 52.10 737.00 54.00 Z M 312.00 86.50 C 310.90 86.78 309.55 87.67 309.00 88.50 C 308.45 89.33 308.23 90.67 308.50 91.50 C 308.77 92.33 311.02 93.90 313.50 95.00 C 315.98 96.10 321.15 98.12 325.00 99.50 L 332.00 102.00 C 331.23 95.80 330.55 93.10 330.00 92.00 C 329.45 90.90 327.65 89.33 326.00 88.50 C 324.35 87.67 320.98 86.78 318.50 86.50 C 316.02 86.22 313.10 86.22 312.00 86.50 Z M 481.00 87.00 C 477.70 87.55 472.98 88.67 470.50 89.50 C 468.02 90.33 463.98 92.12 461.50 93.50 C 459.02 94.88 454.75 98.47 452.00 101.50 C 449.25 104.53 445.88 109.47 444.50 112.50 C 443.12 115.53 441.55 120.25 441.00 123.00 C 440.45 125.75 440.00 133.18 440.00 139.50 C 440.00 148.97 440.44 152.41 442.50 159.00 C 444.17 164.33 446.50 169.00 449.50 173.00 C 451.98 176.30 456.48 180.80 459.50 183.00 C 462.52 185.20 467.93 187.90 471.50 189.00 C 476.06 190.40 480.83 191.00 487.50 191.00 C 492.73 191.00 499.02 190.55 501.50 190.00 C 503.98 189.45 508.70 187.65 512.00 186.00 C 515.30 184.35 520.25 180.75 523.00 178.00 C 525.75 175.25 529.12 170.75 530.50 168.00 C 531.88 165.25 533.90 159.62 535.00 155.50 C 536.33 150.50 537.00 144.83 537.00 138.50 C 537.00 133.28 536.33 126.30 535.50 123.00 C 534.67 119.70 532.88 114.75 531.50 112.00 C 530.12 109.25 527.65 105.20 526.00 103.00 C 524.35 100.80 520.75 97.42 518.00 95.50 C 515.25 93.58 510.75 91.10 508.00 90.00 C 505.25 88.90 499.40 87.55 495.00 87.00 C 489.67 86.33 485.00 86.33 481.00 87.00 Z M 583.50 86.50 C 582.12 86.78 578.52 87.45 575.50 88.00 C 572.48 88.55 567.30 90.35 564.00 92.00 C 560.70 93.65 555.75 97.03 553.00 99.50 C 549.67 102.50 547.00 106.17 545.00 110.50 C 543.35 114.08 541.33 119.47 540.50 122.50 C 539.61 125.76 539.00 132.28 539.00 138.50 C 539.00 144.72 539.61 151.24 540.50 154.50 C 541.33 157.53 543.12 162.47 544.50 165.50 C 545.88 168.53 549.25 173.47 552.00 176.50 C 554.75 179.53 559.02 183.12 561.50 184.50 C 563.98 185.88 568.70 187.90 572.00 189.00 C 576.32 190.44 580.67 191.00 587.50 191.00 C 592.73 191.00 599.02 190.55 601.50 190.00 C 603.98 189.45 608.48 187.88 611.50 186.50 C 614.52 185.12 619.48 181.75 622.50 179.00 C 626.30 175.55 628.93 171.99 631.00 167.50 C 632.65 163.93 634.23 159.88 634.50 158.50 C 634.77 157.12 634.55 155.55 634.00 155.00 C 633.45 154.45 627.60 153.10 621.00 152.00 C 614.40 150.90 607.88 150.22 606.50 150.50 C 604.99 150.80 603.20 152.39 602.00 154.50 C 600.90 156.43 598.88 158.90 597.50 160.00 C 596.12 161.10 593.42 162.45 591.50 163.00 C 589.58 163.55 587.10 163.78 586.00 163.50 C 584.90 163.22 582.65 162.55 581.00 162.00 C 579.00 161.33 577.17 159.50 575.50 156.50 C 573.45 152.81 572.91 150.21 572.50 142.00 C 572.23 136.50 572.45 129.97 573.00 127.50 C 573.55 125.03 575.12 121.42 576.50 119.50 C 578.39 116.86 580.10 115.75 583.50 115.00 C 586.50 114.33 589.17 114.33 591.50 115.00 C 593.42 115.55 596.12 116.67 597.50 117.50 C 598.88 118.33 600.45 120.12 601.00 121.50 C 601.55 122.88 602.45 125.12 603.00 126.50 C 603.76 128.39 604.73 129.00 607.00 129.00 C 608.65 129.00 615.17 128.10 621.50 127.00 C 627.83 125.90 633.45 124.78 634.00 124.50 C 634.55 124.22 634.77 122.20 634.50 120.00 C 634.23 117.80 632.88 113.53 631.50 110.50 C 629.90 106.99 627.01 103.19 623.50 100.00 C 620.48 97.25 615.75 93.88 613.00 92.50 C 610.25 91.12 606.65 89.55 605.00 89.00 C 603.35 88.45 598.40 87.55 594.00 87.00 C 589.60 86.45 584.88 86.22 583.50 86.50 Z M 875.00 87.00 C 872.80 87.55 868.98 88.67 866.50 89.50 C 864.02 90.33 859.52 92.58 856.50 94.50 C 853.48 96.42 849.88 99.35 848.50 101.00 C 847.12 102.65 844.42 106.47 842.50 109.50 C 840.35 112.88 838.42 117.69 837.50 122.00 C 836.67 125.85 836.00 133.50 836.00 139.00 C 836.00 144.78 836.63 151.32 837.50 154.50 C 838.33 157.53 840.35 162.70 842.00 166.00 C 843.65 169.30 847.48 174.47 850.50 177.50 C 853.52 180.53 858.25 184.12 861.00 185.50 C 863.75 186.88 868.48 188.68 871.50 189.50 C 874.76 190.39 881.28 191.00 887.50 191.00 C 895.17 191.00 899.75 190.46 904.50 189.00 C 908.08 187.90 913.02 185.88 915.50 184.50 C 917.98 183.12 921.58 180.65 923.50 179.00 C 925.42 177.35 927.00 175.10 927.00 174.00 C 927.00 172.90 923.85 168.40 920.00 164.00 C 915.62 159.00 912.25 156.00 911.00 156.00 C 909.90 156.00 908.55 156.68 908.00 157.50 C 907.45 158.32 904.75 159.90 902.00 161.00 C 898.46 162.42 894.67 163.00 889.00 163.00 C 883.00 163.00 880.00 162.50 877.00 161.00 C 874.80 159.90 872.10 157.65 871.00 156.00 C 869.90 154.35 869.00 151.88 869.00 150.50 L 869.00 148.00 L 932.00 147.00 C 932.00 135.17 931.16 128.83 930.00 124.50 C 928.90 120.38 926.65 114.30 925.00 111.00 C 923.33 107.67 919.33 102.33 916.00 99.00 C 912.44 95.44 907.76 91.98 904.50 90.50 C 901.48 89.12 896.30 87.55 893.00 87.00 C 889.70 86.45 885.20 86.00 883.00 86.00 C 880.80 86.00 877.20 86.45 875.00 87.00 Z M 988.50 87.00 C 986.02 87.55 982.65 88.45 981.00 89.00 C 979.35 89.55 975.98 91.80 973.50 94.00 L 969.00 98.00 C 969.00 91.80 968.55 89.55 968.00 89.00 C 967.43 88.43 960.83 88.00 952.50 88.00 C 944.17 88.00 937.57 88.43 937.00 89.00 C 936.36 89.64 936.00 107.67 936.00 139.00 C 936.00 170.33 936.36 188.36 937.00 189.00 C 937.57 189.57 944.17 190.00 952.50 190.00 C 960.83 190.00 967.43 189.57 968.00 189.00 C 968.62 188.38 969.00 176.00 969.00 156.00 C 969.00 125.67 969.10 123.84 971.00 121.00 C 972.10 119.35 974.12 117.33 975.50 116.50 C 976.88 115.67 980.02 115.00 982.50 115.00 C 984.98 115.00 988.12 115.67 989.50 116.50 C 990.88 117.33 992.90 119.80 994.00 122.00 C 995.87 125.75 996.00 128.00 996.00 157.50 C 996.00 184.61 996.21 189.07 997.50 189.50 C 998.33 189.78 1005.30 190.00 1013.00 190.00 L 1027.00 190.00 C 1028.59 186.02 1029.00 172.33 1029.00 154.00 C 1029.00 136.95 1028.55 120.08 1028.00 116.50 C 1027.45 112.92 1026.10 107.97 1025.00 105.50 C 1023.90 103.03 1021.42 99.20 1019.50 97.00 C 1017.56 94.79 1013.54 91.88 1010.50 90.50 C 1007.48 89.12 1002.30 87.55 999.00 87.00 C 995.00 86.33 991.50 86.33 988.50 87.00 Z M 1067.50 87.00 C 1063.92 87.55 1059.42 88.45 1057.50 89.00 C 1055.58 89.55 1052.20 90.90 1050.00 92.00 C 1047.80 93.10 1044.20 95.58 1042.00 97.50 C 1039.80 99.42 1037.10 103.03 1036.00 105.50 C 1034.85 108.09 1033.79 113.19 1033.50 117.50 C 1033.15 122.69 1033.46 126.39 1034.50 129.50 C 1035.52 132.55 1037.61 135.45 1041.00 138.50 C 1043.75 140.97 1048.25 144.12 1051.00 145.50 C 1053.75 146.88 1058.25 148.68 1061.00 149.50 C 1063.75 150.32 1070.05 151.90 1075.00 153.00 C 1079.95 154.10 1085.12 155.68 1086.50 156.50 C 1088.10 157.46 1089.00 158.90 1089.00 160.50 C 1089.00 161.97 1087.97 163.83 1086.50 165.00 C 1084.58 166.54 1082.50 167.00 1077.50 167.00 C 1072.67 167.00 1070.23 166.49 1068.00 165.00 C 1066.35 163.90 1064.55 161.88 1064.00 160.50 C 1063.45 159.12 1062.55 157.55 1062.00 157.00 C 1061.44 156.44 1055.33 156.00 1048.00 156.00 C 1040.85 156.00 1034.33 156.22 1033.50 156.50 C 1032.41 156.86 1032.00 158.50 1032.00 162.50 C 1032.00 166.00 1032.73 169.45 1034.00 172.00 C 1035.10 174.20 1038.03 177.80 1040.50 180.00 C 1042.97 182.20 1047.03 184.90 1049.50 186.00 C 1051.97 187.10 1056.47 188.68 1059.50 189.50 C 1063.02 190.46 1069.50 191.00 1077.50 191.00 C 1085.50 191.00 1091.98 190.46 1095.50 189.50 C 1098.53 188.68 1102.80 187.10 1105.00 186.00 C 1107.20 184.90 1110.80 182.43 1113.00 180.50 C 1115.20 178.57 1117.90 175.20 1119.00 173.00 C 1120.17 170.67 1121.21 166.08 1121.50 162.00 C 1121.78 158.15 1121.55 153.20 1121.00 151.00 C 1120.41 148.64 1118.15 144.95 1115.50 142.00 C 1112.22 138.36 1109.10 136.19 1104.00 134.00 C 1100.15 132.35 1094.08 130.32 1090.50 129.50 C 1086.92 128.68 1080.40 127.10 1076.00 126.00 C 1071.56 124.89 1067.11 123.11 1066.00 122.00 C 1064.67 120.67 1064.17 119.17 1064.50 117.50 C 1064.83 115.83 1066.17 114.50 1068.50 113.50 C 1070.42 112.67 1074.03 112.00 1076.50 112.00 C 1078.97 112.00 1082.58 112.67 1084.50 113.50 C 1087.08 114.61 1088.39 116.05 1089.50 119.00 L 1091.00 123.00 C 1111.15 123.00 1117.67 122.78 1118.50 122.50 C 1119.54 122.15 1120.00 120.61 1120.00 117.50 C 1120.00 114.50 1119.00 111.00 1117.00 107.00 C 1115.35 103.70 1112.20 99.42 1110.00 97.50 C 1107.80 95.58 1104.65 93.33 1103.00 92.50 C 1101.35 91.67 1098.20 90.33 1096.00 89.50 C 1093.80 88.67 1087.95 87.55 1083.00 87.00 C 1077.00 86.33 1071.83 86.33 1067.50 87.00 Z M 728.00 106.00 C 716.38 120.72 713.00 125.45 713.00 126.00 C 713.00 126.55 716.60 133.97 721.00 142.50 L 729.00 158.00 L 728.00 106.00 Z M 367.00 119.00 C 367.00 119.78 367.23 120.00 367.50 120.00 C 367.77 120.00 368.00 120.00 368.00 120.00 L 368.00 120.00 C 372.65 125.42 375.12 129.25 376.50 132.00 L 379.00 137.00 L 379.00 122.00 C 374.35 122.00 372.10 121.55 371.00 121.00 C 369.90 120.45 369.00 120.00 369.00 120.00 L 369.00 120.00 C 368.23 118.45 367.77 118.00 367.50 118.00 C 367.23 118.00 367.00 118.00 367.00 118.00 L 367.00 118.00 C 364.68 114.12 364.00 111.65 364.00 110.00 L 364.00 107.00 L 347.00 107.00 C 354.75 110.88 359.25 113.58 362.00 115.50 C 364.75 117.42 367.00 119.00 367.00 119.00 L 367.00 119.00 Z M 426.00 122.00 C 426.00 146.03 426.23 153.22 426.50 153.50 C 426.77 153.78 428.35 154.00 430.00 154.00 C 432.50 154.00 432.92 153.67 432.50 152.00 C 432.23 150.90 432.00 145.50 432.00 140.00 C 432.00 134.50 432.23 128.20 432.50 126.00 L 433.00 122.00 L 426.00 122.00 Z M 583.50 123.50 C 582.67 124.33 581.55 126.12 581.00 127.50 C 580.45 128.88 580.00 134.05 580.00 139.00 C 580.00 143.95 580.45 148.90 581.00 150.00 C 581.55 151.10 583.12 152.90 584.50 154.00 C 586.50 155.60 587.50 155.80 589.50 155.00 C 590.88 154.45 592.90 152.65 594.00 151.00 C 595.10 149.35 596.90 146.88 598.00 145.50 C 599.10 144.12 601.12 142.78 602.50 142.50 C 603.88 142.22 608.83 142.45 613.50 143.00 C 618.17 143.55 623.80 144.22 626.00 144.50 L 630.00 145.00 C 630.00 134.67 629.76 134.00 628.00 134.00 C 626.90 134.00 622.17 134.68 617.50 135.50 C 612.83 136.32 607.42 137.00 605.50 137.00 C 603.23 137.00 600.94 136.12 599.00 134.50 C 597.32 133.10 595.78 130.68 595.50 129.00 C 595.23 127.35 594.10 125.10 593.00 124.00 C 591.89 122.89 589.67 122.00 588.00 122.00 C 586.35 122.00 584.33 122.67 583.50 123.50 Z M 307.00 141.00 C 307.86 148.72 308.71 150.57 310.50 152.00 C 311.88 153.10 314.80 154.45 317.00 155.00 C 319.20 155.55 322.80 155.78 325.00 155.50 C 327.20 155.22 329.68 154.32 330.50 153.50 C 331.32 152.68 332.00 151.55 332.00 151.00 C 332.00 150.45 329.52 148.88 326.50 147.50 C 323.48 146.12 317.85 144.10 314.00 143.00 L 307.00 141.00 Z M 1036.00 146.00 C 1036.00 146.55 1036.00 147.22 1036.00 147.50 C 1036.00 147.78 1036.67 148.00 1037.50 148.00 C 1038.83 148.00 1038.83 147.83 1037.50 146.50 C 1036.67 145.68 1036.00 145.45 1036.00 146.00 Z M 925.50 157.50 C 925.77 158.32 926.00 159.22 926.00 159.50 C 926.00 159.78 926.45 160.00 927.00 160.00 C 927.55 160.00 928.00 159.10 928.00 158.00 C 928.00 156.89 927.33 156.00 926.50 156.00 C 925.61 156.00 925.20 156.61 925.50 157.50 Z" fill-rule="evenodd"/>
	<path fill="#000000" d="M 371.00 90.00 C 371.00 93.88 371.00 95.22 371.00 95.50 C 371.00 95.78 371.00 96.00 371.00 96.00 L 371.00 96.00 L 371.00 96.00 C 371.00 96.00 370.32 96.90 369.50 98.00 C 368.14 99.81 366.83 100.00 355.50 100.00 C 348.62 100.00 342.10 99.55 341.00 99.00 C 339.57 98.29 339.00 97.00 339.00 94.50 C 339.00 92.23 338.12 89.94 336.50 88.00 C 335.12 86.35 332.65 83.88 331.00 82.50 C 329.23 81.03 325.74 79.59 322.50 79.00 C 318.83 78.33 315.17 78.33 311.50 79.00 C 307.91 79.65 305.13 80.87 303.50 82.50 C 302.12 83.88 300.77 86.58 300.50 88.50 C 300.15 90.97 300.59 92.88 302.00 95.00 C 303.10 96.65 305.80 99.12 308.00 100.50 C 310.20 101.88 319.43 105.70 328.50 109.00 C 337.57 112.30 347.48 116.12 350.50 117.50 C 353.52 118.88 358.25 122.03 361.00 124.50 C 363.75 126.97 367.12 131.25 368.50 134.00 C 370.71 138.42 371.00 140.27 371.00 150.00 C 371.00 160.11 370.76 161.53 368.00 167.50 C 366.09 171.64 363.37 175.45 360.50 178.00 C 358.02 180.20 353.30 183.35 350.00 185.00 C 346.70 186.65 341.07 188.68 337.50 189.50 C 333.82 190.35 326.22 191.00 320.00 191.00 C 313.78 191.00 306.18 190.35 302.50 189.50 C 298.93 188.68 293.30 186.65 290.00 185.00 C 286.70 183.35 281.75 179.75 279.00 177.00 C 276.25 174.25 272.88 169.53 271.50 166.50 C 269.46 162.01 269.00 159.43 269.00 144.00 L 299.00 144.00 L 300.00 148.50 C 300.55 150.97 302.12 154.35 303.50 156.00 C 304.88 157.65 308.02 159.90 310.50 161.00 C 313.70 162.42 317.17 163.00 322.50 163.00 C 327.17 163.00 331.13 162.43 333.00 161.50 C 334.65 160.68 336.68 158.88 337.50 157.50 C 338.32 156.12 339.00 153.20 339.00 151.00 C 339.00 148.80 338.32 146.10 337.50 145.00 C 336.68 143.90 334.65 142.32 333.00 141.50 C 331.35 140.68 323.48 137.75 315.50 135.00 C 307.52 132.25 297.62 128.43 293.50 126.50 C 289.38 124.58 283.52 120.75 280.50 118.00 C 276.70 114.55 274.07 110.99 272.00 106.50 C 269.33 100.72 269.00 98.94 269.00 90.50 C 269.00 82.50 269.39 80.13 271.50 75.50 C 272.88 72.47 276.02 67.75 278.50 65.00 C 281.14 62.07 285.48 58.76 289.00 57.00 C 292.30 55.35 297.70 53.33 301.00 52.50 C 304.52 51.62 311.56 51.00 318.00 51.00 C 324.44 51.00 331.48 51.62 335.00 52.50 C 338.30 53.33 343.93 55.35 347.50 57.00 C 352.12 59.13 355.59 61.73 359.50 66.00 C 362.52 69.30 366.12 74.47 367.50 77.50 C 368.88 80.53 370.23 84.58 371.00 90.00 Z" fill-rule="evenodd"/>
	<path fill="#000000" d="M 639.00 53.00 C 639.57 52.43 646.17 52.00 654.50 52.00 C 662.83 52.00 669.43 52.43 670.00 53.00 C 670.62 53.62 671.00 65.67 671.00 116.00 L 674.50 112.50 C 676.42 110.58 681.83 104.28 695.00 88.00 L 712.00 88.00 C 728.33 88.00 729.00 88.08 729.00 90.00 C 729.00 91.10 723.38 99.20 716.50 108.00 C 709.62 116.80 704.00 124.45 704.00 125.00 C 704.00 125.55 710.52 139.50 718.50 156.00 C 726.48 172.50 732.77 186.68 732.50 187.50 C 732.10 188.70 729.30 189.10 718.50 189.50 C 711.08 189.78 703.88 189.78 702.50 189.50 C 700.30 189.06 698.92 186.42 691.00 167.50 C 686.05 155.68 681.55 146.00 681.00 146.00 C 680.45 146.00 677.98 149.15 671.00 160.00 L 671.00 174.00 C 671.00 182.00 670.57 188.43 670.00 189.00 C 669.43 189.57 662.83 190.00 654.50 190.00 C 646.17 190.00 639.57 189.57 639.00 189.00 C 638.35 188.35 638.00 164.33 638.00 121.00 C 638.00 77.67 638.35 53.65 639.00 53.00 Z" fill-rule="evenodd"/>
	<path fill="#000000" d="M 737.00 54.00 C 737.95 52.10 738.74 52.02 768.00 53.00 L 769.00 162.00 L 834.00 163.00 L 834.00 189.00 L 738.00 190.00 L 737.00 187.50 C 736.37 185.92 736.00 161.17 736.00 120.50 C 736.00 79.50 736.36 55.27 737.00 54.00 Z" fill-rule="evenodd"/>
	<path fill="#000000" d="M 372.00 100.00 C 372.77 92.25 373.45 89.55 374.00 89.00 C 374.55 88.45 375.00 88.00 375.00 88.00 L 375.00 88.00 L 375.00 88.00 C 375.00 88.00 377.70 88.00 387.00 88.00 L 388.00 62.00 L 417.00 62.00 L 418.00 88.00 L 438.00 89.00 L 438.00 113.00 L 419.00 115.00 L 418.50 132.50 C 418.23 142.12 418.23 151.57 418.50 153.50 C 418.77 155.43 419.90 157.90 421.00 159.00 C 422.47 160.47 424.33 161.00 428.00 161.00 C 430.75 161.00 433.90 161.45 435.00 162.00 C 436.83 162.92 437.00 164.00 437.00 175.00 C 437.00 184.56 436.69 187.20 435.50 188.00 C 434.68 188.55 431.07 189.22 427.50 189.50 C 423.93 189.78 417.18 189.55 412.50 189.00 C 407.46 188.41 401.76 186.98 398.50 185.50 C 394.14 183.52 392.48 182.07 390.50 178.50 C 388.07 174.12 387.97 173.18 386.00 115.00 L 380.50 114.50 C 377.48 114.22 374.32 113.55 373.50 113.00 C 372.44 112.30 372.00 110.22 372.00 100.00 Z" fill-rule="evenodd"/>
	<path fill="#FECE5FFD" d="M 51.00 105.00 C 27.75 136.00 20.55 145.22 20.00 145.50 C 19.45 145.78 19.00 146.00 19.00 146.00 L 19.00 146.00 C 20.63 144.37 21.00 129.50 21.00 104.50 L 21.00 65.00 L 50.00 65.00 C 50.77 96.00 51.00 105.00 51.00 105.00 L 51.00 105.00 Z" fill-rule="evenodd"/>
	<path fill="#2DFD34FC" d="M 4.00 169.00 C 3.23 169.78 2.77 170.00 2.50 170.00 C 2.23 170.00 2.23 169.55 2.50 169.00 C 2.77 168.45 3.00 168.00 3.00 168.00 L 3.00 168.00 C 3.77 166.45 7.38 161.50 11.50 156.00 C 15.62 150.50 19.00 146.00 19.00 146.00 L 19.00 146.00 L 19.00 146.00 C 19.00 146.00 19.45 145.78 20.00 145.50 C 20.55 145.22 27.75 136.00 51.00 105.00 C 51.00 104.22 52.80 101.53 55.00 98.50 C 57.20 95.47 59.00 93.00 59.00 93.00 L 59.00 93.00 L 59.00 93.00 C 59.00 93.00 60.35 91.65 62.00 90.00 C 63.65 88.35 65.90 85.88 69.00 82.00 L 97.50 110.00 C 113.18 125.40 126.22 138.00 126.50 138.00 C 126.78 138.00 127.45 137.10 129.00 134.00 C 129.78 134.00 130.00 134.00 130.00 134.00 L 130.00 134.00 C 136.97 127.80 139.00 125.78 139.00 125.50 C 139.00 125.22 139.00 125.00 139.00 125.00 L 139.00 125.00 L 139.00 125.00 C 139.00 125.00 139.68 124.55 140.50 124.00 C 141.32 123.45 147.62 117.60 167.00 99.00 C 167.78 99.00 168.45 98.33 169.00 97.50 C 169.55 96.67 170.00 96.00 170.00 96.00 L 170.00 96.00 C 176.20 89.80 179.80 86.20 182.00 84.00 L 186.00 80.00 C 181.83 75.83 181.33 74.67 182.00 74.00 C 182.55 73.45 189.97 71.20 198.50 69.00 C 207.03 66.80 214.22 65.22 214.50 65.50 C 214.78 65.78 213.20 72.75 211.00 81.00 C 208.80 89.25 206.55 96.45 206.00 97.00 C 205.33 97.67 204.17 97.33 202.50 96.00 C 201.12 94.90 199.78 94.00 199.50 94.00 C 199.22 94.00 196.30 96.47 193.00 99.50 C 189.70 102.53 182.28 109.50 176.50 115.00 C 170.72 120.50 159.25 131.30 151.00 139.00 C 142.75 146.70 133.75 155.25 131.00 158.00 L 126.00 163.00 L 69.00 107.00 C 62.80 112.42 60.33 114.67 59.50 115.50 C 58.67 116.33 45.85 128.70 31.00 143.00 C 16.15 157.30 4.00 169.00 4.00 169.00 L 4.00 169.00 Z" fill-rule="evenodd"/>
	<path fill="#000000" d="M 481.00 87.00 C 485.00 86.33 489.67 86.33 495.00 87.00 C 499.40 87.55 505.25 88.90 508.00 90.00 C 510.75 91.10 515.25 93.58 518.00 95.50 C 520.75 97.42 524.35 100.80 526.00 103.00 C 527.65 105.20 530.12 109.25 531.50 112.00 C 532.88 114.75 534.67 119.70 535.50 123.00 C 536.33 126.30 537.00 133.28 537.00 138.50 C 537.00 144.83 536.33 150.50 535.00 155.50 C 533.90 159.62 531.88 165.25 530.50 168.00 C 529.12 170.75 525.75 175.25 523.00 178.00 C 520.25 180.75 515.30 184.35 512.00 186.00 C 508.70 187.65 503.98 189.45 501.50 190.00 C 499.02 190.55 492.73 191.00 487.50 191.00 C 480.83 191.00 476.06 190.40 471.50 189.00 C 467.93 187.90 462.52 185.20 459.50 183.00 C 456.48 180.80 451.98 176.30 449.50 173.00 C 446.50 169.00 444.17 164.33 442.50 159.00 C 440.44 152.41 440.00 148.97 440.00 139.50 C 440.00 133.18 440.45 125.75 441.00 123.00 C 441.55 120.25 443.12 115.53 444.50 112.50 C 445.88 109.47 449.25 104.53 452.00 101.50 C 454.75 98.47 459.02 94.88 461.50 93.50 C 463.98 92.12 468.02 90.33 470.50 89.50 C 472.98 88.67 477.70 87.55 481.00 87.00 Z M 484.50 114.50 C 483.12 114.78 480.65 116.12 479.00 117.50 C 477.35 118.88 475.32 122.03 474.50 124.50 C 473.55 127.36 473.00 132.83 473.00 139.50 C 473.00 148.00 473.38 150.76 475.00 154.00 C 476.10 156.20 477.90 158.90 479.00 160.00 C 480.10 161.10 482.80 162.45 485.00 163.00 C 487.67 163.67 490.17 163.67 492.50 163.00 C 494.43 162.45 497.35 160.43 499.00 158.50 C 500.65 156.57 502.45 153.20 503.00 151.00 C 503.55 148.80 504.00 143.40 504.00 139.00 C 504.00 134.60 503.55 129.20 503.00 127.00 C 502.45 124.80 500.65 121.42 499.00 119.50 C 496.88 117.03 494.68 115.71 491.50 115.00 C 489.02 114.45 485.88 114.22 484.50 114.50 Z" fill-rule="evenodd"/>
	<path fill="#000000" d="M 583.50 86.50 C 584.88 86.22 589.60 86.45 594.00 87.00 C 598.40 87.55 603.35 88.45 605.00 89.00 C 606.65 89.55 610.25 91.12 613.00 92.50 C 615.75 93.88 620.48 97.25 623.50 100.00 C 627.01 103.19 629.90 106.99 631.50 110.50 C 632.88 113.53 634.23 117.80 634.50 120.00 C 634.77 122.20 634.55 124.22 634.00 124.50 C 633.45 124.78 627.83 125.90 621.50 127.00 C 615.17 128.10 608.65 129.00 607.00 129.00 C 604.73 129.00 603.76 128.39 603.00 126.50 C 602.45 125.12 601.55 122.88 601.00 121.50 C 600.45 120.12 598.88 118.33 597.50 117.50 C 596.12 116.67 593.42 115.55 591.50 115.00 C 589.17 114.33 586.50 114.33 583.50 115.00 C 580.10 115.75 578.39 116.86 576.50 119.50 C 575.12 121.42 573.55 125.03 573.00 127.50 C 572.45 129.97 572.23 136.50 572.50 142.00 C 572.91 150.21 573.45 152.81 575.50 156.50 C 577.17 159.50 579.00 161.33 581.00 162.00 C 582.65 162.55 584.90 163.22 586.00 163.50 C 587.10 163.78 589.58 163.55 591.50 163.00 C 593.42 162.45 596.12 161.10 597.50 160.00 C 598.88 158.90 600.90 156.43 602.00 154.50 C 603.20 152.39 604.99 150.80 606.50 150.50 C 607.88 150.22 614.40 150.90 621.00 152.00 C 627.60 153.10 633.45 154.45 634.00 155.00 C 634.55 155.55 634.77 157.12 634.50 158.50 C 634.23 159.88 632.65 163.93 631.00 167.50 C 628.93 171.99 626.30 175.55 622.50 179.00 C 619.48 181.75 614.52 185.12 611.50 186.50 C 608.48 187.88 603.98 189.45 601.50 190.00 C 599.02 190.55 592.73 191.00 587.50 191.00 C 580.67 191.00 576.32 190.44 572.00 189.00 C 568.70 187.90 563.98 185.88 561.50 184.50 C 559.02 183.12 554.75 179.53 552.00 176.50 C 549.25 173.47 545.88 168.53 544.50 165.50 C 543.12 162.47 541.33 157.53 540.50 154.50 C 539.61 151.24 539.00 144.72 539.00 138.50 C 539.00 132.28 539.61 125.76 540.50 122.50 C 541.33 119.47 543.35 114.08 545.00 110.50 C 547.00 106.17 549.67 102.50 553.00 99.50 C 555.75 97.03 560.70 93.65 564.00 92.00 C 567.30 90.35 572.48 88.55 575.50 88.00 C 578.52 87.45 582.12 86.78 583.50 86.50 Z" fill-rule="evenodd"/>
	<path fill="#000000" d="M 875.00 87.00 C 877.20 86.45 880.80 86.00 883.00 86.00 C 885.20 86.00 889.70 86.45 893.00 87.00 C 896.30 87.55 901.48 89.12 904.50 90.50 C 907.76 91.98 912.44 95.44 916.00 99.00 C 919.33 102.33 923.33 107.67 925.00 111.00 C 926.65 114.30 928.90 120.38 930.00 124.50 C 931.16 128.83 932.00 135.17 932.00 147.00 L 869.00 148.00 L 869.00 150.50 C 869.00 151.88 869.90 154.35 871.00 156.00 C 872.10 157.65 874.80 159.90 877.00 161.00 C 880.00 162.50 883.00 163.00 889.00 163.00 C 894.67 163.00 898.46 162.42 902.00 161.00 C 904.75 159.90 907.45 158.32 908.00 157.50 C 908.55 156.68 909.90 156.00 911.00 156.00 C 912.25 156.00 915.62 159.00 920.00 164.00 C 923.85 168.40 927.00 172.90 927.00 174.00 C 927.00 175.10 925.42 177.35 923.50 179.00 C 921.58 180.65 917.98 183.12 915.50 184.50 C 913.02 185.88 908.08 187.90 904.50 189.00 C 899.75 190.46 895.17 191.00 887.50 191.00 C 881.28 191.00 874.76 190.39 871.50 189.50 C 868.48 188.68 863.75 186.88 861.00 185.50 C 858.25 184.12 853.52 180.53 850.50 177.50 C 847.48 174.47 843.65 169.30 842.00 166.00 C 840.35 162.70 838.33 157.53 837.50 154.50 C 836.63 151.32 836.00 144.78 836.00 139.00 C 836.00 133.50 836.67 125.85 837.50 122.00 C 838.42 117.69 840.35 112.88 842.50 109.50 C 844.42 106.47 847.12 102.65 848.50 101.00 C 849.88 99.35 853.48 96.42 856.50 94.50 C 859.52 92.58 864.02 90.33 866.50 89.50 C 868.98 88.67 872.80 87.55 875.00 87.00 Z M 879.50 115.00 C 878.12 115.55 876.10 116.45 875.00 117.00 C 873.90 117.55 872.10 120.03 871.00 122.50 C 869.90 124.97 869.23 127.45 869.50 128.00 C 869.80 128.60 875.67 129.00 884.00 129.00 C 892.33 129.00 898.20 128.60 898.50 128.00 C 898.77 127.45 898.33 125.42 897.50 123.50 C 896.67 121.58 894.65 118.88 893.00 117.50 C 891.35 116.12 888.20 114.78 886.00 114.50 C 883.80 114.22 880.88 114.45 879.50 115.00 Z" fill-rule="evenodd"/>
	<path fill="#000000" d="M 988.50 87.00 C 991.50 86.33 995.00 86.33 999.00 87.00 C 1002.30 87.55 1007.48 89.12 1010.50 90.50 C 1013.54 91.88 1017.56 94.79 1019.50 97.00 C 1021.42 99.20 1023.90 103.03 1025.00 105.50 C 1026.10 107.97 1027.45 112.92 1028.00 116.50 C 1028.55 120.08 1029.00 136.95 1029.00 154.00 C 1029.00 172.33 1028.59 186.02 1027.00 190.00 L 1013.00 190.00 C 1005.30 190.00 998.33 189.78 997.50 189.50 C 996.21 189.07 996.00 184.61 996.00 157.50 C 996.00 128.00 995.87 125.75 994.00 122.00 C 992.90 119.80 990.88 117.33 989.50 116.50 C 988.12 115.67 984.98 115.00 982.50 115.00 C 980.02 115.00 976.88 115.67 975.50 116.50 C 974.12 117.33 972.10 119.35 971.00 121.00 C 969.10 123.84 969.00 125.67 969.00 156.00 C 969.00 176.00 968.62 188.38 968.00 189.00 C 967.43 189.57 960.83 190.00 952.50 190.00 C 944.17 190.00 937.57 189.57 937.00 189.00 C 936.36 188.36 936.00 170.33 936.00 139.00 C 936.00 107.67 936.36 89.64 937.00 89.00 C 937.57 88.43 944.17 88.00 952.50 88.00 C 960.83 88.00 967.43 88.43 968.00 89.00 C 968.55 89.55 969.00 91.80 969.00 98.00 L 973.50 94.00 C 975.98 91.80 979.35 89.55 981.00 89.00 C 982.65 88.45 986.02 87.55 988.50 87.00 Z" fill-rule="evenodd"/>
	<path fill="#000000" d="M 1067.50 87.00 C 1071.83 86.33 1077.00 86.33 1083.00 87.00 C 1087.95 87.55 1093.80 88.67 1096.00 89.50 C 1098.20 90.33 1101.35 91.67 1103.00 92.50 C 1104.65 93.33 1107.80 95.58 1110.00 97.50 C 1112.20 99.42 1115.35 103.70 1117.00 107.00 C 1119.00 111.00 1120.00 114.50 1120.00 117.50 C 1120.00 120.61 1119.54 122.15 1118.50 122.50 C 1117.67 122.78 1111.15 123.00 1091.00 123.00 L 1089.50 119.00 C 1088.39 116.05 1087.08 114.61 1084.50 113.50 C 1082.58 112.67 1078.97 112.00 1076.50 112.00 C 1074.03 112.00 1070.42 112.67 1068.50 113.50 C 1066.17 114.50 1064.83 115.83 1064.50 117.50 C 1064.17 119.17 1064.67 120.67 1066.00 122.00 C 1067.11 123.11 1071.56 124.89 1076.00 126.00 C 1080.40 127.10 1086.92 128.68 1090.50 129.50 C 1094.08 130.32 1100.15 132.35 1104.00 134.00 C 1109.10 136.19 1112.22 138.36 1115.50 142.00 C 1118.15 144.95 1120.41 148.64 1121.00 151.00 C 1121.55 153.20 1121.78 158.15 1121.50 162.00 C 1121.21 166.08 1120.17 170.67 1119.00 173.00 C 1117.90 175.20 1115.20 178.57 1113.00 180.50 C 1110.80 182.43 1107.20 184.90 1105.00 186.00 C 1102.80 187.10 1098.53 188.68 1095.50 189.50 C 1091.98 190.46 1085.50 191.00 1077.50 191.00 C 1069.50 191.00 1063.02 190.46 1059.50 189.50 C 1056.47 188.68 1051.97 187.10 1049.50 186.00 C 1047.03 184.90 1042.97 182.20 1040.50 180.00 C 1038.03 177.80 1035.10 174.20 1034.00 172.00 C 1032.73 169.45 1032.00 166.00 1032.00 162.50 C 1032.00 158.50 1032.41 156.86 1033.50 156.50 C 1034.33 156.22 1040.85 156.00 1048.00 156.00 C 1055.33 156.00 1061.44 156.44 1062.00 157.00 C 1062.55 157.55 1063.45 159.12 1064.00 160.50 C 1064.55 161.88 1066.35 163.90 1068.00 165.00 C 1070.23 166.49 1072.67 167.00 1077.50 167.00 C 1082.50 167.00 1084.58 166.54 1086.50 165.00 C 1087.97 163.83 1089.00 161.97 1089.00 160.50 C 1089.00 158.90 1088.10 157.46 1086.50 156.50 C 1085.12 155.68 1079.95 154.10 1075.00 153.00 C 1070.05 151.90 1063.75 150.32 1061.00 149.50 C 1058.25 148.68 1053.75 146.88 1051.00 145.50 C 1048.25 144.12 1043.75 140.97 1041.00 138.50 C 1037.61 135.45 1035.52 132.55 1034.50 129.50 C 1033.46 126.39 1033.15 122.69 1033.50 117.50 C 1033.79 113.19 1034.85 108.09 1036.00 105.50 C 1037.10 103.03 1039.80 99.42 1042.00 97.50 C 1044.20 95.58 1047.80 93.10 1050.00 92.00 C 1052.20 90.90 1055.58 89.55 1057.50 89.00 C 1059.42 88.45 1063.92 87.55 1067.50 87.00 Z" fill-rule="evenodd"/>
	<path fill="#A0A0A0" d="M 375.00 88.00 L 375.00 88.00 C 375.00 88.00 374.55 88.45 374.00 89.00 C 373.45 89.55 372.77 92.25 372.00 100.00 L 372.00 100.00 C 372.00 100.00 372.00 99.10 372.00 98.00 C 372.00 96.90 371.77 96.00 371.00 96.00 L 371.00 96.00 C 371.00 96.00 371.00 95.78 371.00 95.50 C 371.00 95.22 371.00 93.88 371.00 90.00 L 371.00 90.00 C 371.00 90.00 371.45 89.55 372.00 89.00 C 372.55 88.45 373.45 88.00 375.00 88.00 Z" fill-rule="evenodd"/>
	<path fill="#C0EBD741" d="M 168.00 96.00 C 168.78 96.00 169.22 96.00 169.50 96.00 C 169.78 96.00 170.00 96.00 170.00 96.00 L 170.00 96.00 L 170.00 96.00 C 170.00 96.00 169.55 96.67 169.00 97.50 C 168.45 98.33 167.78 99.00 167.00 99.00 L 167.00 99.00 C 167.00 99.00 167.00 98.33 167.00 97.50 C 167.00 96.67 167.22 96.00 168.00 96.00 Z" fill-rule="evenodd"/>
	<path fill="#FEFEFEFD" d="M 484.50 114.50 C 485.88 114.22 489.02 114.45 491.50 115.00 C 494.68 115.71 496.88 117.03 499.00 119.50 C 500.65 121.42 502.45 124.80 503.00 127.00 C 503.55 129.20 504.00 134.60 504.00 139.00 C 504.00 143.40 503.55 148.80 503.00 151.00 C 502.45 153.20 500.65 156.57 499.00 158.50 C 497.35 160.43 494.43 162.45 492.50 163.00 C 490.17 163.67 487.67 163.67 485.00 163.00 C 482.80 162.45 480.10 161.10 479.00 160.00 C 477.90 158.90 476.10 156.20 475.00 154.00 C 473.38 150.76 473.00 148.00 473.00 139.50 C 473.00 132.83 473.55 127.36 474.50 124.50 C 475.32 122.03 477.35 118.88 479.00 117.50 C 480.65 116.12 483.12 114.78 484.50 114.50 Z M 484.50 123.50 C 483.68 124.33 482.32 126.58 481.50 128.50 C 480.64 130.50 480.00 135.00 480.00 139.00 C 480.00 143.22 480.60 147.19 481.50 149.00 C 482.32 150.65 484.12 152.90 485.50 154.00 C 486.93 155.14 488.86 155.79 490.00 155.50 C 491.10 155.22 492.68 153.88 493.50 152.50 C 494.32 151.12 495.45 147.53 496.00 144.50 C 496.67 140.83 496.67 137.00 496.00 133.00 C 495.45 129.70 494.10 125.88 493.00 124.50 C 491.83 123.03 489.97 122.00 488.50 122.00 C 487.12 122.00 485.32 122.67 484.50 123.50 Z" fill-rule="evenodd"/>
	<path fill="#FFFFFF" d="M 879.50 115.00 C 880.88 114.45 883.80 114.22 886.00 114.50 C 888.20 114.78 891.35 116.12 893.00 117.50 C 894.65 118.88 896.67 121.58 897.50 123.50 C 898.33 125.42 898.77 127.45 898.50 128.00 C 898.20 128.60 892.33 129.00 884.00 129.00 C 875.67 129.00 869.80 128.60 869.50 128.00 C 869.23 127.45 869.90 124.97 871.00 122.50 C 872.10 120.03 873.90 117.55 875.00 117.00 C 876.10 116.45 878.12 115.55 879.50 115.00 Z" fill-rule="evenodd"/>
	<path fill="#A3DAC81C" d="M 367.00 118.00 L 367.00 118.00 C 367.00 118.00 367.23 118.00 367.50 118.00 C 367.77 118.00 368.23 118.45 369.00 120.00 C 368.23 120.00 368.00 120.00 368.00 120.00 L 368.00 120.00 C 368.00 119.22 367.77 119.00 367.50 119.00 C 367.23 119.00 367.00 119.00 367.00 119.00 L 367.00 119.00 C 367.00 118.22 367.00 118.00 367.00 118.00 L 367.00 118.00 Z" fill-rule="evenodd"/>
	<path fill="#B1E2CF2E" d="M 186.00 122.00 C 184.45 123.55 184.22 124.00 184.50 124.00 C 184.78 124.00 185.00 124.00 185.00 124.00 L 185.00 124.00 C 185.00 124.78 184.78 125.00 184.50 125.00 C 184.22 125.00 184.00 125.00 184.00 125.00 L 184.00 125.00 C 184.00 124.22 183.78 124.00 183.50 124.00 C 183.22 124.00 183.00 124.00 183.00 124.00 L 183.00 124.00 C 185.32 120.90 186.22 120.00 186.50 120.00 C 186.78 120.00 186.78 120.45 186.50 121.00 C 186.22 121.55 186.00 122.00 186.00 122.00 L 186.00 122.00 Z" fill-rule="evenodd"/>
	<path fill="#00B8FDFB" d="M 181.00 126.00 C 182.55 125.22 183.00 125.22 183.00 125.50 C 183.00 125.78 183.00 126.00 183.00 126.00 L 183.00 126.00 C 182.22 127.55 180.88 129.57 179.50 131.50 C 178.12 133.43 170.03 144.22 161.50 155.50 C 152.97 166.78 141.50 182.07 136.00 189.50 L 126.00 203.00 L 69.00 147.00 C 63.58 151.65 61.33 153.68 60.50 154.50 C 59.67 155.32 52.70 162.07 45.00 169.50 C 37.30 176.93 31.00 183.00 31.00 183.00 L 31.00 183.00 C 30.23 183.78 30.23 184.00 30.50 184.00 C 30.77 184.00 31.00 184.00 31.00 184.00 L 31.00 184.00 C 37.98 190.20 41.58 193.12 43.50 194.50 C 45.42 195.88 49.02 198.12 51.50 199.50 C 53.98 200.88 58.70 203.12 62.00 204.50 C 65.30 205.88 70.47 207.68 73.50 208.50 C 76.53 209.32 83.05 210.45 88.00 211.00 C 94.00 211.67 100.33 211.67 107.00 211.00 C 112.50 210.45 118.80 209.55 121.00 209.00 C 123.20 208.45 127.92 206.88 131.50 205.50 C 135.07 204.12 140.25 201.65 143.00 200.00 C 145.75 198.35 150.70 195.20 154.00 193.00 C 157.30 190.80 162.70 186.07 166.00 182.50 C 169.30 178.93 174.03 172.85 176.50 169.00 C 178.97 165.15 182.57 157.72 184.50 152.50 C 186.43 147.28 188.45 140.30 189.00 137.00 C 189.55 133.70 190.22 128.97 190.50 126.50 L 191.00 122.00 L 208.00 122.00 C 208.00 135.83 207.25 141.79 206.00 146.50 C 204.90 150.62 203.32 156.03 202.50 158.50 C 201.68 160.97 199.88 165.25 198.50 168.00 C 197.12 170.75 193.97 176.15 191.50 180.00 C 189.03 183.85 183.62 190.60 179.50 195.00 C 175.38 199.40 168.40 205.47 164.00 208.50 C 159.60 211.53 152.40 215.80 148.00 218.00 C 143.60 220.20 136.62 223.12 132.50 224.50 C 128.38 225.88 122.08 227.45 118.50 228.00 C 114.92 228.55 105.92 229.00 98.50 229.00 C 91.08 229.00 81.85 228.55 78.00 228.00 C 74.15 227.45 67.62 225.88 63.50 224.50 C 59.38 223.12 53.08 220.65 49.50 219.00 C 45.92 217.35 39.85 213.97 36.00 211.50 C 32.15 209.03 26.75 204.97 24.00 202.50 C 21.25 200.03 16.98 195.75 14.50 193.00 C 12.02 190.25 9.10 186.65 8.00 185.00 L 6.00 182.00 C 16.85 171.15 26.97 161.25 35.50 153.00 C 44.03 144.75 55.05 134.18 60.00 129.50 L 69.00 121.00 L 126.00 177.00 C 132.97 170.80 139.50 164.72 145.00 159.50 C 150.50 154.28 158.60 146.62 163.00 142.50 C 167.40 138.38 173.25 132.97 176.00 130.50 C 178.75 128.03 181.00 126.00 181.00 126.00 L 181.00 126.00 Z" fill-rule="evenodd"/>
	<path fill="#00B8FDFB" d="M 186.00 122.00 C 185.22 122.78 185.00 123.22 185.00 123.50 C 185.00 123.78 185.00 124.00 185.00 124.00 L 185.00 124.00 L 185.00 124.00 C 185.00 124.00 184.78 124.00 184.50 124.00 C 184.22 124.00 184.45 123.55 186.00 122.00 Z" fill-rule="evenodd"/>
	<path fill="#DFF2E162" d="M 138.00 123.00 L 138.00 123.00 C 138.00 123.00 138.22 123.00 138.50 123.00 C 138.78 123.00 139.00 123.45 139.00 125.00 L 139.00 125.00 C 139.00 125.00 139.00 125.22 139.00 125.50 C 139.00 125.78 136.97 127.80 130.00 134.00 C 136.20 127.80 138.00 125.33 138.00 124.50 C 138.00 123.67 138.00 123.00 138.00 123.00 L 138.00 123.00 Z" fill-rule="evenodd"/>
	<path fill="#C0EBD741" d="M 183.00 124.00 C 183.00 124.78 183.22 125.00 183.50 125.00 C 183.78 125.00 184.00 125.00 184.00 125.00 L 184.00 125.00 C 184.00 125.78 183.78 126.00 183.50 126.00 C 183.22 126.00 183.00 126.00 183.00 126.00 L 183.00 126.00 L 183.00 126.00 C 183.00 126.00 183.00 125.78 183.00 125.50 C 183.00 125.22 182.55 125.22 181.00 126.00 C 181.78 124.45 182.22 124.00 182.50 124.00 C 182.78 124.00 183.00 124.00 183.00 124.00 L 183.00 124.00 Z" fill-rule="evenodd"/>
	<path fill="#00B8FDFB" d="M 183.00 124.00 L 183.00 124.00 C 183.00 124.00 183.22 124.00 183.50 124.00 C 183.78 124.00 184.00 124.22 184.00 125.00 L 184.00 125.00 C 184.00 125.00 183.78 125.00 183.50 125.00 C 183.22 125.00 183.00 124.78 183.00 124.00 Z" fill-rule="evenodd"/>
	<path fill="#AEE0CE2A" d="M 3.00 168.00 L 3.00 168.00 C 3.00 168.00 2.77 168.45 2.50 169.00 C 2.23 169.55 2.23 170.00 2.50 170.00 C 2.77 170.00 3.23 169.78 4.00 169.00 C 2.45 171.32 1.55 172.00 1.00 172.00 C 0.45 172.00 0.00 171.55 0.00 171.00 C 0.00 170.45 0.67 169.55 1.50 169.00 C 2.33 168.45 3.00 168.00 3.00 168.00 L 3.00 168.00 Z" fill-rule="evenodd"/>
	<path fill="#C0EBD741" d="M 31.00 183.00 C 31.00 183.78 31.00 184.00 31.00 184.00 L 31.00 184.00 L 31.00 184.00 C 31.00 184.00 30.77 184.00 30.50 184.00 C 30.23 184.00 30.23 183.78 31.00 183.00 Z" fill-rule="evenodd"/>
</svg>
