<?xml version="1.0" ?>
<svg xmlns="http://www.w3.org/2000/svg" version="1.1" width="96" height="96">
	<g fill="none" stroke-linecap="butt"/>
	<path fill="#FEC710FA" d="M 48.00 9.00 C 49.41 9.00 50.59 10.33 52.00 13.50 C 53.10 15.98 55.58 21.82 57.50 26.50 C 60.57 33.97 61.30 35.00 63.50 35.00 C 64.88 35.00 71.17 35.45 77.50 36.00 C 86.20 36.76 89.12 37.37 89.50 38.50 C 89.82 39.45 86.33 43.67 80.00 50.00 L 70.00 60.00 C 73.88 80.15 74.78 86.45 74.50 87.00 C 74.22 87.55 73.33 88.00 72.50 88.00 C 71.67 88.00 65.83 85.08 59.50 81.50 L 48.00 75.00 C 30.95 85.08 25.10 88.00 24.00 88.00 C 22.90 88.00 21.77 87.55 21.50 87.00 C 21.23 86.45 22.12 80.15 23.50 73.00 L 26.00 60.00 C 9.67 43.67 6.18 39.45 6.50 38.50 C 6.89 37.33 10.07 36.78 21.00 36.00 L 35.00 35.00 C 44.94 11.50 46.38 9.00 48.00 9.00 Z" fill-rule="evenodd"/>
</svg>
